<svg xmlns="http://www.w3.org/2000/svg" xmlns:xlink="http://www.w3.org/1999/xlink" width="2092.399" height="2125.513" viewBox="0 0 2092.399 2125.513">
  <defs>
    <clipPath id="clip-path">
      <rect id="Rectangle_3" data-name="Rectangle 3" width="1605.887" height="1530.114" fill="none"/>
    </clipPath>
  </defs>
  <g id="Group_23" data-name="Group 23" transform="matrix(-0.454, 0.891, -0.891, -0.454, 2092.399, 694.657)" opacity="0.18" style="mix-blend-mode: color-dodge;isolation: isolate">
    <g id="Group_22" data-name="Group 22" clip-path="url(#clip-path)">
      <path id="Path_43" data-name="Path 43" d="M600.719,160.532,404.888,52.3,457.7,5.028,600.974,110.362l.011-2.027L458.133,3.312a.817.817,0,0,0-1.034.049l-54.164,48.49a.825.825,0,0,0-.266.706.81.81,0,0,0,.416.622L600.709,162.4Z" transform="translate(1004.339 7.859)" fill="#c4c4c4"/>
      <path id="Path_44" data-name="Path 44" d="M599.965,274.008,406.5,20.456,600.709,127.788l.01-1.866L403.878,17.133a.813.813,0,0,0-1.017.182.826.826,0,0,0-.031,1.034L599.951,276.7Z" transform="translate(1004.339 42.472)" fill="#c4c4c4"/>
      <path id="Path_45" data-name="Path 45" d="M233.447,523.189l263.438-118.78L522.7,524.663l1.681.01-26.113-121.6a.819.819,0,0,0-1.135-.577L229.5,523.168Z" transform="translate(572.423 1003.739)" fill="#c4c4c4"/>
      <path id="Path_46" data-name="Path 46" d="M580.8,422.09l-172.822,55.2,5.308.028,167.5-53.507Z" transform="translate(1017.593 1052.794)" fill="#c4c4c4"/>
      <path id="Path_47" data-name="Path 47" d="M562.321,111.741,421.374,8.123l141.5-4.7.007-1.639L418.956,6.561a.812.812,0,0,0-.755.577.822.822,0,0,0,.3.905L562.31,113.767Z" transform="translate(1043.003 4.45)" fill="#c4c4c4"/>
      <path id="Path_48" data-name="Path 48" d="M597.21,278.215,406.466,266.967l154.114-93.447L597.6,202.345l.01-2.072-36.47-28.394a.821.821,0,0,0-.929-.052L403.363,266.932a.82.82,0,0,0,.377,1.52L597.2,279.858Z" transform="translate(1005.103 428.278)" fill="#c4c4c4"/>
      <path id="Path_49" data-name="Path 49" d="M54.817,476.718l31.42-53.588,6.332,53.78,1.653.01-6.643-56.407a.821.821,0,0,0-1.524-.321L52.923,476.707Z" transform="translate(132.003 1047.047)" fill="#c4c4c4"/>
      <path id="Path_50" data-name="Path 50" d="M580.8,422.09l-172.822,55.2,5.308.028,167.5-53.507Z" transform="translate(1017.593 1052.794)" fill="#c4c4c4"/>
      <path id="Path_51" data-name="Path 51" d="M607.066,451.68l-181.19-45.009a.838.838,0,0,0-.992.594L397.464,515.611l1.688.01L426.274,408.46l180.785,44.908Z" transform="translate(991.371 1014.287)" fill="#c4c4c4"/>
      <path id="Path_52" data-name="Path 52" d="M584.508,334.607l-98.992,56.813-74.763-19.973,173.9-66.593.01-1.761L407.8,370.817a.823.823,0,0,0-.528.811.832.832,0,0,0,.608.751l77.537,20.71a.835.835,0,0,0,.206.031.864.864,0,0,0,.412-.108L584.5,336.5Z" transform="translate(1015.844 755.984)" fill="#c4c4c4"/>
      <path id="Path_53" data-name="Path 53" d="M333.685,524.673l-25.8-120.167,99.995,35.481-43.192,84.844,1.831.01L409.762,439.9a.8.8,0,0,0,.031-.674.824.824,0,0,0-.486-.468L307.049,402.469a.822.822,0,0,0-1.076.947l26.035,121.247Z" transform="translate(763.122 1003.736)" fill="#c4c4c4"/>
      <path id="Path_54" data-name="Path 54" d="M324.593,498.944l42.588-83.652,52.987,84.141,1.943.01L367.8,413.192a.76.76,0,0,0-.73-.381.809.809,0,0,0-.692.447l-43.615,85.675Z" transform="translate(805.046 1029.632)" fill="#c4c4c4"/>
      <path id="Path_55" data-name="Path 55" d="M389.1,499.43l1.946.01-52.826-83.886,180.53,84.536,3.906.017L336.387,412.882a.824.824,0,0,0-1.045,1.181Z" transform="translate(836.116 1029.635)" fill="#c4c4c4"/>
      <path id="Path_56" data-name="Path 56" d="M335.692,429.721l183.053,85.721,3.91.017-183.507-85.93,240.708-21.137-27.14,107.221,1.691.01,27.321-107.955a.816.816,0,0,0-.171-.73.866.866,0,0,0-.7-.287l-244.894,21.51a.819.819,0,0,0-.276,1.558" transform="translate(836.116 1014.285)" fill="#c4c4c4"/>
      <path id="Path_57" data-name="Path 57" d="M70.651,476.916l-6.44-54.674,85.158,55.073,3.043.017L63.638,419.918a.82.82,0,0,0-.877-.007.807.807,0,0,0-.381.79L69,476.906Z" transform="translate(155.576 1047.052)" fill="#c4c4c4"/>
      <path id="Path_58" data-name="Path 58" d="M227.007,325.448a.832.832,0,0,1-.409-.108.855.855,0,0,1-.4-.545l-8.411-40.68a.826.826,0,0,1,.136-.65.81.81,0,0,1,.57-.336L426.741,259a.791.791,0,0,1,.895.64.826.826,0,0,1-.545.954L227.262,325.41a.822.822,0,0,1-.255.038m-7.432-40.792,8.051,38.912L418.736,261.58Z" transform="translate(543.176 645.989)" fill="#c4c4c4"/>
      <path id="Path_59" data-name="Path 59" d="M32.608,521.355,43.349,403.966l97.084,61.939L107.7,521.736l1.894.011,32.654-55.691a.823.823,0,0,0-.266-1.111L43.094,401.859a.835.835,0,0,0-.8-.045.808.808,0,0,0-.454.664L30.962,521.345Z" transform="translate(77.227 1002.019)" fill="#c4c4c4"/>
      <path id="Path_60" data-name="Path 60" d="M133.775,551.129a.816.816,0,0,1-.437-.13L34.452,487.911a.821.821,0,0,1-.028-1.363L203.251,367.936a.819.819,0,0,1,1.237.961L134.548,550.6a.818.818,0,0,1-.51.486.852.852,0,0,1-.262.042M36.366,487.188l97.007,61.89,68.613-178.252Z" transform="translate(84.989 917.347)" fill="#c4c4c4"/>
      <path id="Path_61" data-name="Path 61" d="M362.946,555.91h-.01L63.179,551.13a.818.818,0,0,1-.751-1.111l69.941-181.7a.812.812,0,0,1,.556-.5.8.8,0,0,1,.727.157L363.467,554.453a.819.819,0,0,1-.521,1.457m-298.565-6.4,296.21,4.728-227.1-184.283Z" transform="translate(155.575 917.346)" fill="#c4c4c4"/>
      <path id="Path_62" data-name="Path 62" d="M149.372,477.316l3.043.017L66.042,421.471l293.81,4.686L265.9,477.914l3.368.017L363.346,426.1a.82.82,0,0,0-.384-1.537l-299.754-4.78H63.2a.819.819,0,0,0-.451,1.506Z" transform="translate(155.574 1047.05)" fill="#c4c4c4"/>
      <path id="Path_63" data-name="Path 63" d="M123.988,474.52l91.357-50.328L184.24,474.827l1.918.01,32.21-52.431a.822.822,0,0,0-1.094-1.15L120.62,474.5Z" transform="translate(300.855 1050.461)" fill="#c4c4c4"/>
      <path id="Path_64" data-name="Path 64" d="M140.745,474.84l31.881-51.9,181.536,52.99,5.954.028L172.487,421.19a.814.814,0,0,0-.933.36l-32.727,53.28Z" transform="translate(346.268 1050.459)" fill="#c4c4c4"/>
      <path id="Path_65" data-name="Path 65" d="M624.7,502.974a.807.807,0,0,1-.3-.059L277.883,363.788a.826.826,0,0,1-.507-.636.817.817,0,0,1,.29-.755L453.1,217.805a.787.787,0,0,1,.66-.178.827.827,0,0,1,.563.384L625.41,501.73a.816.816,0,0,1-.077.954.829.829,0,0,1-.629.29M279.777,362.781l342.963,137.7L453.406,219.671Z" transform="translate(691.821 542.779)" fill="#c4c4c4"/>
      <path id="Path_66" data-name="Path 66" d="M499.477,548.863a.818.818,0,0,1-.7-.4L327.693,264.75a.838.838,0,0,1-.084-.671.829.829,0,0,1,.447-.5l143.753-64.287a.807.807,0,0,1,.751.042.824.824,0,0,1,.4.643L500.3,547.979a.828.828,0,0,1-.821.884m-169.9-284.169L498.39,544.649l-26.976-343.39Z" transform="translate(817.048 496.89)" fill="#c4c4c4"/>
      <path id="Path_67" data-name="Path 67" d="M396.865,549.583l-.066,0a.822.822,0,0,1-.744-.755l-27.339-348a.819.819,0,0,1,.21-.618.832.832,0,0,1,.6-.266l119.7-1.013a1.121,1.121,0,0,1,.654.314.821.821,0,0,1,.147.713l-92.36,349.019a.822.822,0,0,1-.8.612M370.418,201.57l26.892,342.324,90.857-343.323Z" transform="translate(919.66 496.167)" fill="#c4c4c4"/>
      <path id="Path_68" data-name="Path 68" d="M661.341,335.52,484.906,403.081,379.478,321.969,661.561,291.74l.01-1.649-284.3,30.466a.821.821,0,0,0-.412,1.468L484.27,404.66a.815.815,0,0,0,.8.115L661.33,337.281Z" transform="translate(939.172 723.557)" fill="#c4c4c4"/>
      <path id="Path_69" data-name="Path 69" d="M369.527,282.226a.822.822,0,0,1-.563-1.415l119.2-113.993a.823.823,0,0,1,1.391.591l.5,112.976a.819.819,0,0,1-.814.825l-119.7,1.017Zm118.4-112.9L371.6,280.567l116.816-.989Z" transform="translate(919.656 415.521)" fill="#c4c4c4"/>
      <path id="Path_70" data-name="Path 70" d="M599.092,445.149,404.868,539.154,404.305,20.28,599.951,276.691l.014-2.687L404.134,17.352a.819.819,0,0,0-1.471.5l.566,522.616a.818.818,0,0,0,.818.818.8.8,0,0,0,.36-.08l194.675-94.226Z" transform="translate(1004.339 42.473)" fill="#c4c4c4"/>
      <path id="Path_71" data-name="Path 71" d="M404.142,281.208a.8.8,0,0,1-.395-.1.827.827,0,0,1-.419-.709l-.5-112.979a.825.825,0,0,1,.273-.611.849.849,0,0,1,.643-.206l157.346,17.87a.821.821,0,0,1,.336,1.517l-156.85,95.106a.784.784,0,0,1-.43.119m.328-112.878.493,110.607,153.551-93.111Z" transform="translate(1004.743 415.523)" fill="#c4c4c4"/>
      <path id="Path_72" data-name="Path 72" d="M598.342,207.068l-37.692,44.8-154.1-17.5,192.127-92.992.01-1.828-195.4,94.579a.819.819,0,0,0,.266,1.551L560.9,253.549l.091.007a.821.821,0,0,0,.625-.293l36.711-43.633Z" transform="translate(1004.746 348.069)" fill="#c4c4c4"/>
      <path id="Path_73" data-name="Path 73" d="M485.7,222.034l-35.729-17.765,36.04-42.832.014-2.565-37.975,45.139a.824.824,0,0,0-.178.7.835.835,0,0,0,.44.57l37.378,18.586Z" transform="translate(1117.062 396.265)" fill="#c4c4c4"/>
      <path id="Path_74" data-name="Path 74" d="M485.649,200.275,455.623,176.9l30.068,14.948.011-1.828L449.04,171.794a.82.82,0,0,0-.87,1.38l37.469,29.17Z" transform="translate(1117.061 428.279)" fill="#c4c4c4"/>
      <path id="Path_75" data-name="Path 75" d="M148.753,545.12,330.89,598.285l5.954.031-185.66-54.192,329.332-169.53L400.96,598.641l1.737.007L482.76,373.189a.8.8,0,0,0-.234-.888.819.819,0,0,0-.912-.115L148.6,543.6a.832.832,0,0,0-.44.811.82.82,0,0,0,.591.706" transform="translate(369.545 928.101)" fill="#c4c4c4"/>
      <path id="Path_76" data-name="Path 76" d="M222.243,598.651,302,374.055l215.965,104.8L251.926,598.8l3.949.021,264.36-119.2a.818.818,0,0,0,.021-1.485L301.894,372.178a.837.837,0,0,0-.667-.021.815.815,0,0,0-.461.482l-80.259,226Z" transform="translate(549.995 928.102)" fill="#c4c4c4"/>
      <path id="Path_77" data-name="Path 77" d="M316.6,351.2a.857.857,0,0,1-.489-.164l-95.606-72.013a.822.822,0,0,1,.776-1.429l151.765,55.234a.82.82,0,0,1-.045,1.555L316.84,351.161a.782.782,0,0,1-.238.035M225.877,281.01,316.77,349.47l53.389-15.955Z" transform="translate(549.184 692.255)" fill="#c4c4c4"/>
      <path id="Path_78" data-name="Path 78" d="M372.761,380.678a.976.976,0,0,1-.276-.049L220.719,325.4a.82.82,0,0,1-.538-.786.81.81,0,0,1,.566-.762l199.829-64.815a.8.8,0,0,1,.849.217.831.831,0,0,1,.164.867L373.526,380.164a.817.817,0,0,1-.765.514M223.522,324.672,372.3,378.815l47.116-117.683Z" transform="translate(549.184 645.99)" fill="#c4c4c4"/>
      <path id="Path_79" data-name="Path 79" d="M244.276,570.158a.679.679,0,0,1-.119-.01.817.817,0,0,1-.7-.856l14.26-258.385a.815.815,0,0,1,.583-.741l56.16-16.783a.822.822,0,0,1,.8.2.807.807,0,0,1,.224.793L245.076,569.539a.818.818,0,0,1-.8.618m15.05-258.588L245.562,561.031l67.984-265.664Z" transform="translate(607.249 731.681)" fill="#c4c4c4"/>
      <path id="Path_80" data-name="Path 80" d="M659.008,399.761h-.035l-394.58-19.082a.824.824,0,0,1-.72-1.125l48.06-120.045a.848.848,0,0,1,.437-.451.818.818,0,0,1,.629,0l346.52,139.127a.819.819,0,0,1-.311,1.579M265.623,379.1l388.563,18.789-341.237-137Z" transform="translate(657.517 645.992)" fill="#c4c4c4"/>
      <path id="Path_81" data-name="Path 81" d="M307.064,484.144a.794.794,0,0,1-.3-.056.809.809,0,0,1-.51-.657L265.8,170.309a.817.817,0,0,1,1.314-.751L483,338.088a.817.817,0,0,1,.318.636.807.807,0,0,1-.3.639L307.592,483.955a.8.8,0,0,1-.528.189M267.681,172.077,307.686,481.75l173.5-143Z" transform="translate(662.944 422.479)" fill="#c4c4c4"/>
      <path id="Path_82" data-name="Path 82" d="M482.494,399.788a.819.819,0,0,1-.5-.175L266.106,231.079a.819.819,0,0,1,.168-1.394l188.063-84.379a.82.82,0,0,1,1.153.657l27.821,252.913a.814.814,0,0,1-.416.807.831.831,0,0,1-.4.1M268.188,230.625l213.281,166.5L453.984,147.263Z" transform="translate(662.943 362.247)" fill="#c4c4c4"/>
      <path id="Path_83" data-name="Path 83" d="M384.5,466.648a.881.881,0,0,1-.133-.011.815.815,0,0,1-.657-.615l-89.76-372.71a.825.825,0,0,1,.636-1L674.546,17.044a.822.822,0,0,1,.849,1.251l-290.2,447.979a.819.819,0,0,1-.7.374M295.739,93.76l89.114,370.023L672.967,19.029Z" transform="translate(733.116 42.474)" fill="#c4c4c4"/>
      <path id="Path_84" data-name="Path 84" d="M348.251,399.786a.852.852,0,0,1-.4-.108.838.838,0,0,1-.409-.622L319.616,146.143a.821.821,0,0,1,1.422-.643L492.612,334.126a.834.834,0,0,1,.2.72.82.82,0,0,1-.472.58L348.59,399.713a.8.8,0,0,1-.339.073M321.523,148.47,348.95,397.76l141.684-63.368Z" transform="translate(797.186 362.248)" fill="#c4c4c4"/>
      <path id="Path_85" data-name="Path 85" d="M492,335.5h-.021a.8.8,0,0,1-.577-.269L319.825,146.6a.818.818,0,0,1,.807-1.345l290.773,74.634a.812.812,0,0,1,.591.587.829.829,0,0,1-.224.8L492.57,335.273a.824.824,0,0,1-.573.227M322.879,147.531,492.046,333.5,609.571,221.116Z" transform="translate(797.186 362.248)" fill="#c4c4c4"/>
      <path id="Path_86" data-name="Path 86" d="M611.2,541.282a.966.966,0,0,1-.2-.024L320.224,466.624a.841.841,0,0,1-.559-.5.821.821,0,0,1,.08-.741L609.945,17.4a.822.822,0,0,1,.922-.339.812.812,0,0,1,.587.786l.57,522.613a.826.826,0,0,1-.825.821M321.74,465.317,610.382,539.4l-.563-518.787Z" transform="translate(797.186 42.473)" fill="#c4c4c4"/>
      <path id="Path_87" data-name="Path 87" d="M244.277,570.158a.823.823,0,0,1-.79-1.024l70.42-275.168a.812.812,0,0,1,.5-.566.824.824,0,0,1,.755.091l298.73,206.345a.818.818,0,0,1-.314,1.478L244.431,570.144a.753.753,0,0,1-.154.014M315.2,295.511,245.392,568.292,611.34,500.067Z" transform="translate(607.252 731.681)" fill="#c4c4c4"/>
      <path id="Path_88" data-name="Path 88" d="M462.641,528.829a.909.909,0,0,1-.353-.08L243.922,422.783a.82.82,0,0,1,.21-1.544l369.146-68.823a.816.816,0,0,1,.772,1.338L463.266,528.543a.812.812,0,0,1-.625.286M246.882,422.395l215.553,104.6L611.282,354.456Z" transform="translate(607.251 878.972)" fill="#c4c4c4"/>
      <path id="Path_89" data-name="Path 89" d="M563.159,501.332a.857.857,0,0,1-.465-.143L263.968,294.844a.827.827,0,0,1-.311-.94.857.857,0,0,1,.814-.556l394.58,19.082a.822.822,0,0,1,.688,1.2l-95.847,187.26a.838.838,0,0,1-.531.423.8.8,0,0,1-.2.024m-295.9-206.206,295.6,204.182,94.844-185.3Z" transform="translate(657.519 731.681)" fill="#c4c4c4"/>
      <path id="Path_90" data-name="Path 90" d="M409.028,565.11a.746.746,0,0,1-.273-.049L306.5,528.78a.831.831,0,0,1-.521-.562.821.821,0,0,1,.175-.744l150.78-174.789a.821.821,0,0,1,1.422.72l-48.525,211.07a.835.835,0,0,1-.4.535.8.8,0,0,1-.4.1M308.177,527.634l100.26,35.575,47.581-206.95Z" transform="translate(763.122 878.973)" fill="#c4c4c4"/>
      <path id="Path_91" data-name="Path 91" d="M336.038,565.11a.823.823,0,0,1-.8-1l48.528-211.073a.819.819,0,0,1,1.366-.405L581.505,542.2a.819.819,0,0,1-.5,1.4L336.111,565.11Zm49-210.294L337.09,563.377l241.98-21.252Z" transform="translate(836.116 878.972)" fill="#c4c4c4"/>
      <path id="Path_92" data-name="Path 92" d="M349.922,487.711a.822.822,0,0,1-.727-1.2l95.851-187.26a.834.834,0,0,1,.549-.426.815.815,0,0,1,.681.15l107.416,82.635a.837.837,0,0,1,.318.723.825.825,0,0,1-.444.657L350.3,487.62a.815.815,0,0,1-.381.091m96.134-186.83-94.24,184.112L551.669,382.129Z" transform="translate(870.753 745.302)" fill="#c4c4c4"/>
      <path id="Path_93" data-name="Path 93" d="M546.291,603.5a.829.829,0,0,1-.566-.231L349.356,413.707a.825.825,0,0,1-.227-.786.811.811,0,0,1,.559-.591l280.8-83.911a.822.822,0,0,1,1.02,1.027L547.081,602.92a.824.824,0,0,1-.58.552.864.864,0,0,1-.21.028m-194.786-190,194.4,187.662,83.582-270.73Z" transform="translate(870.753 819.075)" fill="#c4c4c4"/>
      <path id="Path_94" data-name="Path 94" d="M349.925,428.722a.821.821,0,0,1-.374-1.551L552.814,322.549a.838.838,0,0,1,.59-.063L630.939,343.2a.821.821,0,0,1,.017,1.579L350.162,428.687a.811.811,0,0,1-.238.035M553.286,324.15,358.164,424.585l269.553-80.549Z" transform="translate(870.753 804.291)" fill="#c4c4c4"/>
      <path id="Path_95" data-name="Path 95" d="M2.894,481.1a.822.822,0,0,1-.412-1.53L235.024,343.407a.813.813,0,0,1,1.129.3L284.244,429.3a.833.833,0,0,1,.028.755.816.816,0,0,1-.6.451L3.045,481.091a1.15,1.15,0,0,1-.15.014M235.132,345.242,7.3,478.659,282.248,429.1Z" transform="translate(5.181 856.257)" fill="#c4c4c4"/>
      <path id="Path_96" data-name="Path 96" d="M117.532,450.883l-.073,0a.808.808,0,0,1-.636-.416L68.731,364.879a.82.82,0,0,1,.556-1.206l143.568-28.531a.826.826,0,0,1,.863.388.816.816,0,0,1-.077.944L118.164,450.589a.8.8,0,0,1-.632.294M70.716,365.061l46.956,83.565L210.891,337.2Z" transform="translate(171.173 835.892)" fill="#c4c4c4"/>
      <path id="Path_97" data-name="Path 97" d="M199.47,328.4a.7.7,0,0,1-.206-.028.818.818,0,0,1-.587-1l45.1-173.706a.812.812,0,0,1,1-.587.821.821,0,0,1,.591,1l-45.1,173.7a.827.827,0,0,1-.8.615" transform="translate(495.482 381.756)" fill="#c4c4c4"/>
      <path id="Path_98" data-name="Path 98" d="M199.47,328.4a.836.836,0,0,1-.517-.185.819.819,0,0,1-.276-.842l45.1-173.7a.834.834,0,0,1,.391-.51.842.842,0,0,1,.636-.07l189.5,57.05a.817.817,0,0,1,.126,1.517l-234.6,116.655a.809.809,0,0,1-.367.087m45.68-173.493L200.717,326.043,431.851,211.11Z" transform="translate(495.482 381.758)" fill="#c4c4c4"/>
      <path id="Path_99" data-name="Path 99" d="M266.278,425.006a.814.814,0,0,1-.779-.58l-66.81-220.6a.819.819,0,0,1,1.258-.909L475,399.39a.82.82,0,0,1-.384,1.482L266.379,425l-.1,0M200.953,205.655l65.915,217.639,205.447-23.806Z" transform="translate(495.484 505.748)" fill="#c4c4c4"/>
      <path id="Path_100" data-name="Path 100" d="M474.521,484.146a.831.831,0,0,1-.472-.15L198.993,287.525a.835.835,0,0,1-.339-.734.812.812,0,0,1,.451-.667L433.7,169.469a.8.8,0,0,1,.751.01.833.833,0,0,1,.426.618L475.338,483.22a.822.822,0,0,1-.391.811.8.8,0,0,1-.426.115M201.058,286.984,473.472,481.567,433.4,171.45Z" transform="translate(495.484 422.477)" fill="#c4c4c4"/>
      <path id="Path_101" data-name="Path 101" d="M177.626,422.049a.821.821,0,0,1-.6-1.38l143.131-154.5a.8.8,0,0,1,.818-.234.815.815,0,0,1,.584.622l8.418,40.687a.809.809,0,0,1-.307.818L178.119,421.885a.842.842,0,0,1-.493.164m142.652-153.6L184.423,415.1,328.27,307.061Z" transform="translate(441.005 663.217)" fill="#c4c4c4"/>
      <path id="Path_102" data-name="Path 102" d="M177.627,393.009a.822.822,0,0,1-.493-1.478L328.683,277.706a.834.834,0,0,1,.989,0l95.606,72.009a.82.82,0,0,1-.356,1.464L177.767,393a.655.655,0,0,1-.14.014M329.179,279.387,180.821,390.815l241.952-40.931Z" transform="translate(441.004 692.26)" fill="#c4c4c4"/>
      <path id="Path_103" data-name="Path 103" d="M410.524,558.18a.848.848,0,0,1-.559-.22L177.07,341.39a.82.82,0,0,1-.224-.839.807.807,0,0,1,.646-.573l247.158-41.816a.814.814,0,0,1,.95.856L411.345,557.4a.819.819,0,0,1-.514.716.8.8,0,0,1-.307.059M179.4,341.317,409.8,555.566,423.91,299.952Z" transform="translate(441.005 743.659)" fill="#c4c4c4"/>
      <path id="Path_104" data-name="Path 104" d="M662.336,368.424,378.684,546.962l91.588-346.094,192.5,81.325.01-1.779L470.041,198.991a.818.818,0,0,0-1.115.545L376.563,548.555a.826.826,0,0,0,.311.87.8.8,0,0,0,.479.161.825.825,0,0,0,.44-.126L662.322,370.37Z" transform="translate(939.173 496.167)" fill="#c4c4c4"/>
      <path id="Path_105" data-name="Path 105" d="M661.574,396.49l-280.78,30.089,281.531-177.2.01-1.943L376.919,427.079a.822.822,0,0,0,.433,1.516l.094,0L661.564,398.14Z" transform="translate(939.173 617.158)" fill="#c4c4c4"/>
      <path id="Path_106" data-name="Path 106" d="M596.852,280.416,408.494,200.845,597.2,211.971l.01-1.642-193.371-11.4a.768.768,0,0,0-.846.632.812.812,0,0,0,.472.943l193.375,81.688Z" transform="translate(1005.104 496.165)" fill="#c4c4c4"/>
      <path id="Path_107" data-name="Path 107" d="M83.205,451.353a.8.8,0,0,1-.657-.336.819.819,0,0,1,.031-1.01l95.48-114.115a.839.839,0,0,1,.625-.294l188.713-.66h.007a.822.822,0,0,1,.3,1.583L83.52,451.3a.821.821,0,0,1-.314.056m95.868-114.112L85.945,448.547l277.2-111.955Z" transform="translate(205.499 835.419)" fill="#c4c4c4"/>
      <path id="Path_108" data-name="Path 108" d="M313.022,637.836a.8.8,0,0,1-.514-.185L82.693,451.17a.821.821,0,0,1,.21-1.4L367.1,335a.83.83,0,0,1,.821.122.819.819,0,0,1,.29.783l-54.374,301.26a.827.827,0,0,1-.521.625.934.934,0,0,1-.29.049M84.807,450.772,312.463,635.506l53.867-298.429Z" transform="translate(205.499 835.42)" fill="#c4c4c4"/>
      <path id="Path_109" data-name="Path 109" d="M110.53,399.153a.821.821,0,0,1-.283-1.59L344.7,310.168a.819.819,0,0,1,1.01,1.15l-45.733,86.734a.827.827,0,0,1-.723.437l-188.713.664Zm232.723-86.7L115.125,397.5l183.629-.646Z" transform="translate(273.651 773.508)" fill="#c4c4c4"/>
      <path id="Path_110" data-name="Path 110" d="M148.975,637.834a.785.785,0,0,1-.482-.161.821.821,0,0,1-.321-.8l54.377-301.26a.792.792,0,0,1,.43-.58.846.846,0,0,1,.723-.017L482.333,464.852a.822.822,0,0,1,.472.73.807.807,0,0,1-.444.741L149.353,637.743a.762.762,0,0,1-.377.091m55-300.885-53.9,298.576,330.042-169.89Z" transform="translate(369.546 835.422)" fill="#c4c4c4"/>
      <path id="Path_111" data-name="Path 111" d="M443.168,528.33a.8.8,0,0,1-.342-.077L164.194,398.411a.83.83,0,0,1-.43-.479.81.81,0,0,1,.052-.643l45.733-86.731a.794.794,0,0,1,.59-.426.816.816,0,0,1,.7.2L443.73,526.911a.812.812,0,0,1,.119,1.055.82.82,0,0,1-.681.363m-277.5-131.041L438.807,524.574,210.5,312.267Z" transform="translate(408.361 773.509)" fill="#c4c4c4"/>
      <path id="Path_112" data-name="Path 112" d="M528.684,405.578l-96.472-35.931,96.941-55.639.01-1.9L429.878,369.1a.819.819,0,0,0,.122,1.478l98.674,36.752Z" transform="translate(1071.193 778.48)" fill="#c4c4c4"/>
      <path id="Path_113" data-name="Path 113" d="M212.375,245.092a.82.82,0,0,1-.451-1.5L401.28,116.952a.82.82,0,1,1,.912,1.363L212.836,244.953a.838.838,0,0,1-.461.14" transform="translate(527.674 291.361)" fill="#c4c4c4"/>
      <path id="Path_114" data-name="Path 114" d="M401.873,302.142a.781.781,0,0,1-.234-.038l-189.5-57.047a.817.817,0,0,1-.22-1.464L401.279,116.954a.817.817,0,0,1,1.275.678l.143,183.689a.826.826,0,0,1-.825.821m-187.6-58.155,186.778,56.229-.14-181.051Z" transform="translate(527.675 291.362)" fill="#c4c4c4"/>
      <path id="Path_115" data-name="Path 115" d="M266.707,302.142a.832.832,0,0,1-.44-.133.818.818,0,0,1-.377-.688l-.14-183.685a.816.816,0,0,1,.4-.7.805.805,0,0,1,.8-.024l188.207,99.306a.822.822,0,0,1-.045,1.475L267.045,302.069a.822.822,0,0,1-.339.073M267.391,119l.136,181.058L452.9,216.883Z" transform="translate(662.842 291.361)" fill="#c4c4c4"/>
      <path id="Path_116" data-name="Path 116" d="M454.77,412.921a.81.81,0,0,1-.377-.1l-188.2-99.306a.812.812,0,0,1-.391-1l98.447-273.4a.794.794,0,0,1,.814-.538.815.815,0,0,1,.755.625l89.76,372.706a.819.819,0,0,1-.294.839.835.835,0,0,1-.51.175M267.584,312.4l185.971,98.125L364.863,42.244Z" transform="translate(662.842 96.201)" fill="#c4c4c4"/>
      <path id="Path_117" data-name="Path 117" d="M588.37,478.66,407.6,600.7l83.278-269.745,97.608,125.6.014-2.659L491.2,328.7a.8.8,0,0,0-.793-.3.834.834,0,0,0-.639.563L405.342,602.437a.817.817,0,0,0,.293.9.831.831,0,0,0,.486.164.87.87,0,0,0,.465-.14L588.36,480.645Z" transform="translate(1010.926 819.077)" fill="#c4c4c4"/>
      <path id="Path_118" data-name="Path 118" d="M587.512,539.626,408.11,495.06,588.361,373.38l.01-1.988-182.7,123.34a.82.82,0,0,0,.259,1.478l181.578,45.1Z" transform="translate(1010.925 926.341)" fill="#c4c4c4"/>
      <path id="Path_119" data-name="Path 119" d="M528.231,453.9,432.705,330.983l95.969,35.746.01-1.747-98.111-36.543a.821.821,0,0,0-.936,1.272l98.579,126.844Z" transform="translate(1071.192 819.077)" fill="#c4c4c4"/>
      <path id="Path_120" data-name="Path 120" d="M424.547.939a8.551,8.551,0,1,0,8.508,8.592A8.553,8.553,0,0,0,424.547.939" transform="translate(1037.482 2.342)" fill="#c4c4c4"/>
      <path id="Path_121" data-name="Path 121" d="M426.887,3.278a8.552,8.552,0,1,1-8.6,8.508,8.551,8.551,0,0,1,8.6-8.508M426.9,0a11.83,11.83,0,1,0,11.769,11.891A11.84,11.84,0,0,0,426.9,0" transform="translate(1035.142 0)" fill="#231f20"/>
      <path id="Path_122" data-name="Path 122" d="M38.1,400.457a5.276,5.276,0,1,0,5.248,5.3,5.276,5.276,0,0,0-5.248-5.3" transform="translate(81.806 998.836)" fill="#c4c4c4"/>
      <path id="Path_123" data-name="Path 123" d="M40.442,402.8a5.276,5.276,0,1,1-5.3,5.248,5.279,5.279,0,0,1,5.3-5.248m.017-3.281a8.556,8.556,0,1,0,8.512,8.6,8.569,8.569,0,0,0-8.512-8.6" transform="translate(79.466 996.494)" fill="#231f20"/>
      <path id="Path_124" data-name="Path 124" d="M67.859,417.931a7.307,7.307,0,1,0,7.268,7.345,7.3,7.3,0,0,0-7.268-7.345" transform="translate(150.946 1042.421)" fill="#c4c4c4"/>
      <path id="Path_125" data-name="Path 125" d="M70.2,420.27a7.307,7.307,0,1,1-7.341,7.271A7.307,7.307,0,0,1,70.2,420.27m.014-3.278a10.586,10.586,0,1,0,10.532,10.64,10.595,10.595,0,0,0-10.532-10.64" transform="translate(148.604 1040.079)" fill="#231f20"/>
      <path id="Path_126" data-name="Path 126" d="M452.645,170.128a6.337,6.337,0,1,0,6.307,6.37,6.336,6.336,0,0,0-6.307-6.37" transform="translate(1113.125 424.34)" fill="#c4c4c4"/>
      <path id="Path_127" data-name="Path 127" d="M454.987,172.468a6.337,6.337,0,1,1-6.366,6.307,6.338,6.338,0,0,1,6.366-6.307M455,169.19a9.616,9.616,0,1,0,9.567,9.665A9.625,9.625,0,0,0,455,169.19" transform="translate(1110.783 422)" fill="#231f20"/>
      <path id="Path_128" data-name="Path 128" d="M335.62,214.74a10.862,10.862,0,1,0,10.808,10.919A10.864,10.864,0,0,0,335.62,214.74" transform="translate(809.88 535.613)" fill="#c4c4c4"/>
      <path id="Path_129" data-name="Path 129" d="M337.958,217.079a10.864,10.864,0,1,1-10.92,10.808,10.861,10.861,0,0,1,10.92-10.808m.014-3.278a14.141,14.141,0,1,0,14.071,14.215A14.154,14.154,0,0,0,337.972,213.8" transform="translate(807.538 533.271)" fill="#231f20"/>
      <path id="Path_130" data-name="Path 130" d="M376.921,202.794a4.653,4.653,0,1,0-4.675,4.626,4.656,4.656,0,0,0,4.675-4.626" transform="translate(916.923 494.156)" fill="#c4c4c4"/>
      <path id="Path_131" data-name="Path 131" d="M374.63,200.461a4.651,4.651,0,1,1-4.675,4.626,4.654,4.654,0,0,1,4.675-4.626m.018-3.281a7.932,7.932,0,1,0,7.893,7.97,7.943,7.943,0,0,0-7.893-7.97" transform="translate(914.581 491.814)" fill="#231f20"/>
      <path id="Path_132" data-name="Path 132" d="M410.644,185.17A10.7,10.7,0,1,0,400,174.411a10.7,10.7,0,0,0,10.647,10.759" transform="translate(997.689 408.467)" fill="#c4c4c4"/>
      <path id="Path_133" data-name="Path 133" d="M413.1,166.1a10.7,10.7,0,1,1-10.759,10.65A10.711,10.711,0,0,1,413.1,166.1m.017-3.278a13.982,13.982,0,1,0,13.907,14.054,14,14,0,0,0-13.907-14.054" transform="translate(995.349 406.125)" fill="#231f20"/>
      <path id="Path_134" data-name="Path 134" d="M414.354,22.069a6.685,6.685,0,1,0-6.719,6.65,6.687,6.687,0,0,0,6.719-6.65" transform="translate(1000.153 38.287)" fill="#c4c4c4"/>
      <path id="Path_135" data-name="Path 135" d="M410.047,17.692a6.685,6.685,0,1,1-6.723,6.65,6.679,6.679,0,0,1,6.723-6.65m.017-3.281a9.966,9.966,0,1,0,9.91,10.018,9.98,9.98,0,0,0-9.91-10.018" transform="translate(997.811 35.944)" fill="#231f20"/>
      <path id="Path_136" data-name="Path 136" d="M270.8,290.816a9.669,9.669,0,1,0,9.62,9.717,9.669,9.669,0,0,0-9.62-9.717" transform="translate(651.201 725.365)" fill="#c4c4c4"/>
      <path id="Path_137" data-name="Path 137" d="M273.144,293.157a9.67,9.67,0,1,1-9.717,9.62,9.67,9.67,0,0,1,9.717-9.62m.018-3.281a12.95,12.95,0,1,0,12.887,13.02,12.97,12.97,0,0,0-12.887-13.02" transform="translate(648.857 723.021)" fill="#231f20"/>
      <path id="Path_138" data-name="Path 138" d="M312.162,400.279a8.306,8.306,0,1,0,8.264,8.351,8.308,8.308,0,0,0-8.264-8.351" transform="translate(757.778 998.392)" fill="#c4c4c4"/>
      <path id="Path_139" data-name="Path 139" d="M314.5,402.619a8.306,8.306,0,1,1-8.355,8.267,8.307,8.307,0,0,1,8.355-8.267m.017-3.278a11.585,11.585,0,1,0,11.524,11.643,11.6,11.6,0,0,0-11.524-11.643" transform="translate(755.436 996.052)" fill="#231f20"/>
      <path id="Path_140" data-name="Path 140" d="M343.2,409.958a10.771,10.771,0,1,0,10.713,10.825A10.771,10.771,0,0,0,343.2,409.958" transform="translate(829.011 1022.534)" fill="#c4c4c4"/>
      <path id="Path_141" data-name="Path 141" d="M345.538,412.3a10.773,10.773,0,1,1-10.829,10.717A10.775,10.775,0,0,1,345.538,412.3m.017-3.278a14.051,14.051,0,1,0,13.977,14.12,14.063,14.063,0,0,0-13.977-14.12" transform="translate(826.671 1020.194)" fill="#231f20"/>
      <path id="Path_142" data-name="Path 142" d="M353.674,350.909a6.028,6.028,0,1,0,6,6.059,6.029,6.029,0,0,0-6-6.059" transform="translate(867.035 875.251)" fill="#c4c4c4"/>
      <path id="Path_143" data-name="Path 143" d="M356.016,353.249a6.029,6.029,0,1,1-6.059,6,6.032,6.032,0,0,1,6.059-6m.017-3.278a9.309,9.309,0,1,0,9.26,9.357,9.321,9.321,0,0,0-9.26-9.357" transform="translate(864.693 872.912)" fill="#231f20"/>
      <path id="Path_144" data-name="Path 144" d="M415.9,319.353a11.673,11.673,0,1,0,11.608,11.73,11.669,11.669,0,0,0-11.608-11.73" transform="translate(1008.102 796.543)" fill="#c4c4c4"/>
      <path id="Path_145" data-name="Path 145" d="M418.245,321.692a11.673,11.673,0,1,1-11.73,11.615,11.672,11.672,0,0,1,11.73-11.615m.014-3.278a14.952,14.952,0,1,0,14.878,15.029,14.968,14.968,0,0,0-14.878-15.029" transform="translate(1005.76 794.201)" fill="#231f20"/>
      <path id="Path_146" data-name="Path 146" d="M5.765,381.124a4.8,4.8,0,1,0,4.777,4.826,4.8,4.8,0,0,0-4.777-4.826" transform="translate(2.342 950.615)" fill="#c4c4c4"/>
      <path id="Path_147" data-name="Path 147" d="M8.107,383.466a4.8,4.8,0,1,1-4.826,4.777,4.8,4.8,0,0,1,4.826-4.777m.014-3.281a8.081,8.081,0,1,0,8.04,8.121,8.092,8.092,0,0,0-8.04-8.121" transform="translate(0 948.273)" fill="#231f20"/>
      <path id="Path_148" data-name="Path 148" d="M74.443,341.306a7.763,7.763,0,1,0,7.722,7.8,7.76,7.76,0,0,0-7.722-7.8" transform="translate(166.216 851.299)" fill="#c4c4c4"/>
      <path id="Path_149" data-name="Path 149" d="M76.785,343.645a7.764,7.764,0,1,1-7.8,7.722,7.765,7.765,0,0,1,7.8-7.722m.017-3.278a11.042,11.042,0,1,0,10.986,11.1,11.057,11.057,0,0,0-10.986-11.1" transform="translate(163.874 848.957)" fill="#231f20"/>
      <path id="Path_150" data-name="Path 150" d="M202.258,201.66a4.688,4.688,0,1,0,4.661,4.714,4.692,4.692,0,0,0-4.661-4.714" transform="translate(492.722 502.989)" fill="#c4c4c4"/>
      <path id="Path_151" data-name="Path 151" d="M204.6,204a4.688,4.688,0,1,1-4.714,4.665A4.689,4.689,0,0,1,204.6,204m.017-3.278a7.967,7.967,0,1,0,7.928,8.009,7.978,7.978,0,0,0-7.928-8.009" transform="translate(490.383 500.646)" fill="#231f20"/>
      <path id="Path_152" data-name="Path 152" d="M285.286,256.17a10.684,10.684,0,1,0,10.63,10.738,10.687,10.687,0,0,0-10.63-10.738" transform="translate(684.781 638.95)" fill="#c4c4c4"/>
      <path id="Path_153" data-name="Path 153" d="M287.628,258.51a10.686,10.686,0,1,1-10.738,10.629,10.685,10.685,0,0,1,10.738-10.629m.014-3.278a13.963,13.963,0,1,0,13.9,14.036,13.982,13.982,0,0,0-13.9-14.036" transform="translate(682.437 636.61)" fill="#231f20"/>
      <path id="Path_154" data-name="Path 154" d="M221.784,275.269a5.331,5.331,0,1,0-5.3-5.357,5.328,5.328,0,0,0,5.3,5.357" transform="translate(539.953 659.996)" fill="#c4c4c4"/>
      <path id="Path_155" data-name="Path 155" d="M224.18,266.948a5.33,5.33,0,1,1-5.357,5.3,5.336,5.336,0,0,1,5.357-5.3m.017-3.278a8.61,8.61,0,1,0,8.564,8.655,8.62,8.62,0,0,0-8.564-8.655" transform="translate(537.614 657.656)" fill="#231f20"/>
      <path id="Path_156" data-name="Path 156" d="M224.747,276.052a6.026,6.026,0,1,0,6,6.056,6.026,6.026,0,0,0-6-6.056" transform="translate(545.468 688.54)" fill="#c4c4c4"/>
      <path id="Path_157" data-name="Path 157" d="M227.089,278.391a6.028,6.028,0,1,1-6.056,6,6.034,6.034,0,0,1,6.056-6m.017-3.278a9.305,9.305,0,1,0,9.256,9.354,9.324,9.324,0,0,0-9.256-9.354" transform="translate(543.126 686.198)" fill="#231f20"/>
      <path id="Path_158" data-name="Path 158" d="M251.166,297.035a4.716,4.716,0,1,0,4.693,4.738,4.712,4.712,0,0,0-4.693-4.738" transform="translate(614.651 740.877)" fill="#c4c4c4"/>
      <path id="Path_159" data-name="Path 159" d="M253.51,299.375a4.717,4.717,0,1,1-4.738,4.693,4.72,4.72,0,0,1,4.738-4.693m.017-3.278a7.995,7.995,0,1,0,7.953,8.037,8.01,8.01,0,0,0-7.953-8.037" transform="translate(612.304 738.537)" fill="#231f20"/>
      <path id="Path_160" data-name="Path 160" d="M382.668,296.7a8.2,8.2,0,1,0,8.156,8.239,8.2,8.2,0,0,0-8.156-8.239" transform="translate(933.906 740.034)" fill="#c4c4c4"/>
      <path id="Path_161" data-name="Path 161" d="M385.007,299.039a8.2,8.2,0,1,1-8.243,8.156,8.2,8.2,0,0,1,8.243-8.156m.017-3.281A11.479,11.479,0,1,0,396.443,307.3a11.49,11.49,0,0,0-11.419-11.538" transform="translate(931.564 737.692)" fill="#231f20"/>
      <path id="Path_162" data-name="Path 162" d="M409.982,196.462a9.426,9.426,0,1,0,9.375,9.473,9.43,9.43,0,0,0-9.375-9.473" transform="translate(998.958 490.023)" fill="#c4c4c4"/>
      <path id="Path_163" data-name="Path 163" d="M412.322,198.8a9.426,9.426,0,1,1-9.476,9.379,9.432,9.432,0,0,1,9.476-9.379m.014-3.278a12.7,12.7,0,1,0,12.642,12.768,12.716,12.716,0,0,0-12.642-12.768" transform="translate(996.619 487.684)" fill="#231f20"/>
      <path id="Path_164" data-name="Path 164" d="M89.973,365.1a10.221,10.221,0,1,0,10.165,10.273A10.216,10.216,0,0,0,89.973,365.1" transform="translate(198.791 910.637)" fill="#c4c4c4"/>
      <path id="Path_165" data-name="Path 165" d="M92.315,367.435A10.221,10.221,0,1,1,82.042,377.61a10.221,10.221,0,0,1,10.273-10.175m.014-3.278a13.5,13.5,0,1,0,13.432,13.568,13.517,13.517,0,0,0-13.432-13.568" transform="translate(196.449 908.295)" fill="#231f20"/>
      <path id="Path_166" data-name="Path 166" d="M120.036,339.595a5.886,5.886,0,1,0-5.916,5.856,5.883,5.883,0,0,0,5.916-5.856" transform="translate(270.036 832.276)" fill="#c4c4c4"/>
      <path id="Path_167" data-name="Path 167" d="M116.519,336.018a5.89,5.89,0,1,1-5.916,5.856,5.886,5.886,0,0,1,5.916-5.856m.017-3.278a9.166,9.166,0,1,0,9.12,9.214,9.172,9.172,0,0,0-9.12-9.214" transform="translate(267.697 829.934)" fill="#231f20"/>
      <path id="Path_168" data-name="Path 168" d="M155.043,418.743a9.248,9.248,0,1,0,9.2,9.295,9.248,9.248,0,0,0-9.2-9.295" transform="translate(363.531 1044.446)" fill="#c4c4c4"/>
      <path id="Path_169" data-name="Path 169" d="M157.385,421.083a9.248,9.248,0,1,1-9.3,9.2,9.248,9.248,0,0,1,9.3-9.2m.017-3.278a12.527,12.527,0,1,0,12.46,12.593,12.545,12.545,0,0,0-12.46-12.593" transform="translate(361.188 1042.106)" fill="#231f20"/>
      <path id="Path_170" data-name="Path 170" d="M170.907,332.406a9.67,9.67,0,1,0,9.62,9.721,9.672,9.672,0,0,0-9.62-9.721" transform="translate(402.044 829.101)" fill="#c4c4c4"/>
      <path id="Path_171" data-name="Path 171" d="M173.249,334.746a9.672,9.672,0,1,1-9.717,9.62,9.67,9.67,0,0,1,9.717-9.62m.018-3.278a12.95,12.95,0,1,0,12.883,13.016,12.962,12.962,0,0,0-12.883-13.016" transform="translate(399.702 826.761)" fill="#231f20"/>
      <path id="Path_172" data-name="Path 172" d="M249.762,369.918a8.435,8.435,0,1,0,8.39,8.477,8.436,8.436,0,0,0-8.39-8.477" transform="translate(601.813 922.665)" fill="#c4c4c4"/>
      <path id="Path_173" data-name="Path 173" d="M252.1,372.258a8.435,8.435,0,1,1-8.48,8.393,8.433,8.433,0,0,1,8.48-8.393m.018-3.278a11.715,11.715,0,1,0,11.653,11.772,11.726,11.726,0,0,0-11.653-11.772" transform="translate(599.473 920.325)" fill="#231f20"/>
      <path id="Path_174" data-name="Path 174" d="M181.5,308.58a6.192,6.192,0,1,0,6.16,6.223,6.193,6.193,0,0,0-6.16-6.223" transform="translate(437.171 769.673)" fill="#c4c4c4"/>
      <path id="Path_175" data-name="Path 175" d="M183.837,310.92a6.192,6.192,0,1,1-6.223,6.16,6.193,6.193,0,0,1,6.223-6.16m.018-3.278a9.471,9.471,0,1,0,9.42,9.522,9.482,9.482,0,0,0-9.42-9.522" transform="translate(434.828 767.333)" fill="#231f20"/>
      <path id="Path_176" data-name="Path 176" d="M217.116,151.171a7.406,7.406,0,1,0,7.366,7.443,7.406,7.406,0,0,0-7.366-7.443" transform="translate(522.975 377.057)" fill="#c4c4c4"/>
      <path id="Path_177" data-name="Path 177" d="M219.455,153.513a7.406,7.406,0,1,1-7.443,7.366,7.4,7.4,0,0,1,7.443-7.366m.018-3.281a10.686,10.686,0,1,0,10.633,10.741,10.693,10.693,0,0,0-10.633-10.741" transform="translate(520.635 374.715)" fill="#231f20"/>
      <path id="Path_178" data-name="Path 178" d="M269.981,168.042a5.5,5.5,0,1,0,5.469,5.531,5.5,5.5,0,0,0-5.469-5.531" transform="translate(659.602 419.137)" fill="#c4c4c4"/>
      <path id="Path_179" data-name="Path 179" d="M272.32,170.382a5.5,5.5,0,1,1-5.531,5.475,5.5,5.5,0,0,1,5.531-5.475m.014-3.278a8.781,8.781,0,1,0,8.739,8.826,8.787,8.787,0,0,0-8.739-8.826" transform="translate(657.26 416.798)" fill="#231f20"/>
      <path id="Path_180" data-name="Path 180" d="M277.951,29.211a8.741,8.741,0,1,0,8.7,8.785,8.744,8.744,0,0,0-8.7-8.785" transform="translate(671.357 72.859)" fill="#c4c4c4"/>
      <path id="Path_181" data-name="Path 181" d="M280.291,31.553a8.741,8.741,0,1,1-8.788,8.7,8.741,8.741,0,0,1,8.788-8.7m.018-3.281a12.022,12.022,0,1,0,11.961,12.083,12.038,12.038,0,0,0-11.961-12.083" transform="translate(669.018 70.517)" fill="#231f20"/>
      <path id="Path_182" data-name="Path 182" d="M274.374,137.343a11.842,11.842,0,1,0-11.779-11.9,11.843,11.843,0,0,0,11.779,11.9" transform="translate(654.975 283.493)" fill="#c4c4c4"/>
      <path id="Path_183" data-name="Path 183" d="M276.839,116a11.842,11.842,0,1,1-11.9,11.783A11.843,11.843,0,0,1,276.839,116m.018-3.278a15.122,15.122,0,1,0,15.043,15.2,15.137,15.137,0,0,0-15.043-15.2" transform="translate(652.633 281.153)" fill="#231f20"/>
      <path id="Path_184" data-name="Path 184" d="M324.189,143.738a6.045,6.045,0,1,0,6.014,6.077,6.049,6.049,0,0,0-6.014-6.077" transform="translate(793.458 358.517)" fill="#c4c4c4"/>
      <path id="Path_185" data-name="Path 185" d="M326.531,146.078a6.043,6.043,0,1,1-6.073,6.014,6.047,6.047,0,0,1,6.073-6.014m.017-3.278a9.323,9.323,0,1,0,9.274,9.371,9.334,9.334,0,0,0-9.274-9.371" transform="translate(791.116 356.177)" fill="#231f20"/>
      <path id="Path_186" data-name="Path 186" d="M298.988,36.882a6.72,6.72,0,1,0,6.684,6.754,6.724,6.724,0,0,0-6.684-6.754" transform="translate(728.902 91.993)" fill="#c4c4c4"/>
      <path id="Path_187" data-name="Path 187" d="M301.328,39.222a6.72,6.72,0,1,1-6.751,6.688,6.72,6.72,0,0,1,6.751-6.688m.017-3.278a10,10,0,1,0,9.948,10.049,10.012,10.012,0,0,0-9.948-10.049" transform="translate(726.562 89.653)" fill="#231f20"/>
      <path id="Path_188" data-name="Path 188" d="M410.055,405.089A6.278,6.278,0,1,0,416.3,411.4a6.279,6.279,0,0,0-6.244-6.311" transform="translate(1007.027 1010.39)" fill="#c4c4c4"/>
      <path id="Path_189" data-name="Path 189" d="M412.395,407.431a6.278,6.278,0,1,1-6.314,6.248,6.281,6.281,0,0,1,6.314-6.248m.014-3.281a9.559,9.559,0,1,0,9.511,9.609,9.573,9.573,0,0,0-9.511-9.609" transform="translate(1004.688 1008.047)" fill="#231f20"/>
      <path id="Path_190" data-name="Path 190" d="M435.317,326.386a7.813,7.813,0,1,0,7.775,7.852,7.808,7.808,0,0,0-7.775-7.852" transform="translate(1066.201 814.085)" fill="#c4c4c4"/>
      <path id="Path_191" data-name="Path 191" d="M437.659,328.727A7.813,7.813,0,1,1,429.8,336.5a7.818,7.818,0,0,1,7.855-7.775m.018-3.281a11.1,11.1,0,1,0,11.035,11.15,11.105,11.105,0,0,0-11.035-11.15" transform="translate(1063.859 811.741)" fill="#231f20"/>
    </g>
  </g>
</svg>
