<svg xmlns="http://www.w3.org/2000/svg" xmlns:xlink="http://www.w3.org/1999/xlink" width="355.772" height="823.629" viewBox="0 0 355.772 823.629">
  <defs>
    <clipPath id="clip-path">
      <rect id="Rectangle_791" data-name="Rectangle 791" width="355.772" height="823.629" transform="translate(0)" fill="none"/>
    </clipPath>
  </defs>
  <g id="Group_1925" data-name="Group 1925" clip-path="url(#clip-path)">
    <path id="Path_1594" data-name="Path 1594" d="M209.986,118.464l-.03,5.377s1.537,16.817-20.2,19.273-39.57,2.138-38.98-10.839c1.958-10.048,5.467-25.644,5.612-33.958a55.764,55.764,0,0,0-.773-10.07l42.128-.8,12.407,1.931Z" transform="translate(-12.648)" fill="#ffb27d"/>
    <path id="Path_1595" data-name="Path 1595" d="M205.292,89.376l-.16,29.088a37.144,37.144,0,0,1-15.185,3.191c-19.363,0-31.877-13.524-38.418-23.338a55.764,55.764,0,0,0-.773-10.07l42.128-.8Z" transform="translate(-7.795)" fill="#e2915a"/>
    <path id="Path_1596" data-name="Path 1596" d="M146.418,81.79c4.887,25.056,38.83,24.234,53.5,22.659,4.128-.438,6.723-.94,6.723-.94,4.656-1.184,7.252-8.167,8.459-17.314,2.395-18.1-.631-44.676-3.839-51.472-4.833-10.226-13.935-21.287-48.116-13.307s-23,28.271-16.726,60.374" transform="translate(-6.683)" fill="#ffb27d"/>
    <path id="Path_1597" data-name="Path 1597" d="M186.417,823.629h48.1a106.018,106.018,0,0,0-3.836-16.444,45.211,45.211,0,0,0-2.725-6.6c-4.677-8.894-34.388-3.237-34.388-3.237s-2.76,2.253-4.914,10.854a87.261,87.261,0,0,0-2.234,15.427" transform="translate(-74.456)" fill="#233862"/>
    <path id="Path_1598" data-name="Path 1598" d="M.023,809.17C.155,815.4.978,821.3,3.352,823.629H98.489c-1.208-3.278-4.634-8.21-14.4-9.72-11.1-1.711-28.4-6.8-38.5-16.97a26.955,26.955,0,0,1-7.454-12.858C33.659,765.1,1.127,789.9,1.127,789.9a146.295,146.295,0,0,0-1.1,19.273" transform="translate(257.283)" fill="#233862"/>
    <path id="Path_1599" data-name="Path 1599" d="M96.312,603.987A136.153,136.153,0,0,1,98.7,620.725c3.025,56.192,49.659,184.671,58,187.667,12.906,4.64,33.231-5.221,43.864-8.448,4.406-1.341,7.38-5.574,6.4-9.868-23.095-101.126-31.582-246.744-34.67-332.957-1.56-43.425-9.385-73.422-9.385-73.422s-113.74-28.9-114.415,7.66c-.6,32.357,37.675,159.252,47.818,212.63" transform="translate(97.717)" fill="#2b478b"/>
    <path id="Path_1600" data-name="Path 1600" d="M129.513,603.987,205.5,457.119c-1.56-43.425-9.385-73.422-9.385-73.422s-113.74-28.9-114.415,7.66c-.6,32.357,37.675,159.252,47.818,212.63" transform="translate(64.516)" fill="#233862"/>
    <path id="Path_1601" data-name="Path 1601" d="M257.545,391.486,197.418,806.574s-26.405,6.064-46.942,1.213c0,0-17.6-220.763-16.137-274.134S121.7,390.84,137.558,380.977s119.987,10.509,119.987,10.509" transform="translate(-38.21)" fill="#2b478b"/>
    <path id="Path_1602" data-name="Path 1602" d="M230.8,10.873a117.727,117.727,0,0,1-32.791-8.452c-14.4-5.965-32.576.6-38.474,3.564a8.13,8.13,0,0,1,1.438-3.38s-2.649,1.789-3.038,4.289c-.273.191-.395.324-.325.368a10.63,10.63,0,0,0-4.93.3s1.35-.184,1.832.643a.79.79,0,0,0,.216.227C132.263,18.777,130.187,52.6,137.417,60.425c8.7,9.416,19.131,30.62,19.131,30.62s3.8-5.009,2.222-13.295S164.7,69.464,174.19,65.7s1.582-14.312,9.886-20.715,38.749-2.636,38.354-7.532c11.3-3.921,8.375-25.475,8.375-26.578" transform="translate(-15.737)" fill="#233862"/>
    <path id="Path_1603" data-name="Path 1603" d="M92.032,139.487l13.845,282.922s115.54,1.8,112.241-23.106-41.646-251.152-41.646-251.152Z" transform="translate(40.964)" fill="#e9f3fe"/>
    <path id="Path_1604" data-name="Path 1604" d="M198.118,299.854c6.875,19.642-6.086,85.551-10.705,107.879-1.015,4.723-1.691,7.514-1.691,7.514,16,24.793,74.6,24.473,74.6,24.473,11.269-47.446,17.129-123.013,17.129-123.013L232.491,128.965l-56.572,49.808s4.281,30.378,9.579,61.291c4.169,24.475,8.9,49.379,12.62,59.79" transform="translate(-106.374)" fill="#22407a"/>
    <path id="Path_1605" data-name="Path 1605" d="M144.328,85.911s1.1,3.231,9.661,2.052c0,0,7.191-.99,6.657-4.594,0,0-7.229-2.03-16.318,2.542" transform="translate(43.573)" fill="#fff"/>
    <path id="Path_1606" data-name="Path 1606" d="M59.028,143.52s.01.048.025.119c2.734,2.524,79.864,73.853,94.807,101.792,15.214,28.34-69.533,84.8-69.533,84.8s-5.454,2.054-9.237,1.25c3.994,31.336,8.481,60.248,5.823,72.591-4.8,22.3-26.465,29.8-26.465,28.08,0-.546-7.92-81.057-12.224-123.065C33,219.011,5.974,129.538,5.974,129.538c25.22,2.5,53.054,13.982,53.054,13.982m45.923,114.15a.631.631,0,0,0,.112-.43c0-4.08-16.34-13.1-34.033-23.722l-.338-.325-.035-.021A243.556,243.556,0,0,1,70.4,258.3c-1,14.706.118,32.285,1.986,50.182,8.424-12.53,30.924-46.2,32.569-50.813" transform="translate(193.812)" fill="#22407a"/>
    <path id="Path_1607" data-name="Path 1607" d="M163.906,128.627c-.141-2.7,13.286-6.431,13.286-6.431s15.368,20.3,40.686,20.647c0,0-7.214,13.375-15.718,16.839,0,0-37.418-15.02-38.255-31.055" transform="translate(-34.185)" fill="#d9e9f9"/>
    <path id="Path_1608" data-name="Path 1608" d="M138.134,142.368s13.414-7.574,13.459-15.785c0,0,8.662-1.033,12.447,2.969,0,0,3.18,14.071-1.038,22.245,0,0-19.315-2.8-24.868-9.429" transform="translate(45.56)" fill="#d9e9f9"/>
    <path id="Path_1609" data-name="Path 1609" d="M153.814,141.15,172,137a2.674,2.674,0,0,1,2.311,3.019c-.065,2.821-5.122,11.067-7.363,11.726s-17.438-4.883-13.136-10.593" transform="translate(20.776)" fill="#ba4c43"/>
    <path id="Path_1610" data-name="Path 1610" d="M163.907,127.234c-.142-2.7,8.946-8.263,8.946-8.263s17.588,19.581,42.908,19.931c0,0-7.214,13.376-15.719,16.84,0,0-35.3-12.474-36.135-28.508" transform="translate(-32.067)" fill="#e9f3fe"/>
    <path id="Path_1611" data-name="Path 1611" d="M138.236,138.9s13.566-6.85,13.614-15.061c0,0,8.188,3.433,11.971,7.434,0,0,3.5,8.882-.716,17.056,0,0-19.315-2.8-24.868-9.429" transform="translate(45.457)" fill="#e9f3fe"/>
    <path id="Path_1612" data-name="Path 1612" d="M166.46,334.062a26.246,26.246,0,0,1-8.928,17.26l-8.057,7.07a4.876,4.876,0,0,1-6.9-.527l-9.98-12.073a15.5,15.5,0,0,1-3.524-11.434c.933-9.135,2.673-26.735,4.064-43.722,1.133-13.763,2.041-27.135,2.11-35.269.219-25.972-5.191-108.793-5.191-108.793l6.538.326s16.235,32.148,24.735,75.89a276.371,276.371,0,0,1,4.519,34.1s3.408,47.3.618,77.172" transform="translate(52.792)" fill="#c65447"/>
    <path id="Path_1613" data-name="Path 1613" d="M166.46,334.062a26.246,26.246,0,0,1-8.928,17.26l-8.057,7.07a4.876,4.876,0,0,1-6.9-.527l-9.98-12.073a15.5,15.5,0,0,1-3.524-11.434c.933-9.135,2.673-26.735,4.064-43.722C151.2,271.3,158.516,244.59,161.323,222.79a276.371,276.371,0,0,1,4.519,34.1s3.408,47.3.618,77.172" transform="translate(52.792)" fill="#ba4c43"/>
    <path id="Path_1614" data-name="Path 1614" d="M94.22,334.826a12.3,12.3,0,0,0-14.145-11.918,7.84,7.84,0,0,0-5.251,2.763C69.672,332.2,64.772,351.2,73.9,352.092c3.714.362,8.487-2.121,12.163-4.782,3.734-2.7,8.157-6.935,8.157-11.4Z" transform="translate(189.324)" fill="#ffb27d"/>
    <path id="Path_1615" data-name="Path 1615" d="M221.5,407.733c16.566-16.424,45.19-48.733,44.176-75.249-1.352-37.14-46.09-92.42-46.09-92.42,4.168,24.475,8.9,49.379,12.619,59.79,6.876,19.642-6.085,85.551-10.705,107.879" transform="translate(-140.458)" fill="#233862"/>
    <path id="Path_1616" data-name="Path 1616" d="M216.414,343.131s11.909,5.672,19.138,2.836,15.737-4.966,23.818,3.8,9.782,14.839,8.081,18.08-20.542,2.025-23.668,0-8.069-7.012-11.206-6.144c-8.655,2.4-15.942-3.891-20.023-8.9-2.461-3.021,4.181-4.485,3.86-9.668" transform="translate(-134.855)" fill="#ffb27d"/>
    <path id="Path_1617" data-name="Path 1617" d="M344.864,128.965s-47.435,5-58.62,24.677-69.354,99.413-67.451,132.551,79.349,70.3,79.349,70.3,17.152-6.9,17.409-14.331-53.54-51.822-50.279-60.107,62.5-73.808,68.214-95.412,11.378-57.673,11.378-57.673" transform="translate(-218.746)" fill="#22407a"/>
    <path id="Path_1618" data-name="Path 1618" d="M54.108,233.193s.112.11.338.325c17.693,10.624,34.033,19.642,34.033,23.722,2.366-7.193-20.622-37.25-28.061-43.366-7.551-6.227-6.311,19.319-6.311,19.319" transform="translate(210.396)" fill="#233862"/>
    <path id="Path_1619" data-name="Path 1619" d="M196.176,118.97s36.01,143.66,30.279,197.776c0,0-13.241-57.83-45.1-105.2,0,0,11.627-9.74,11-13.33,0,0-8.63-2.438-17-.8,0,0,.926-61.925,6.148-68.467s14.683-9.983,14.683-9.983" transform="translate(-55.389)" fill="#233862"/>
    <path id="Path_1620" data-name="Path 1620" d="M114.059,123.841c-.733-.411,35.685,140.381,38.731,185.244,0,0-3.61-80.058-3.255-103.132,0,0-14.955-7.542-14.955-10.188s15.954-9.8,15.954-9.8-10.1-49.3-15.617-54.736-20.858-7.388-20.858-7.388" transform="translate(83.248)" fill="#233862"/>
  </g>
</svg>
