<svg id="Group_1908" data-name="Group 1908" xmlns="http://www.w3.org/2000/svg" xmlns:xlink="http://www.w3.org/1999/xlink" width="204.1" height="203.292" viewBox="0 0 204.1 203.292">
  <defs>
    <clipPath id="clip-path">
      <rect id="Rectangle_761" data-name="Rectangle 761" width="204.1" height="203.292" fill="none"/>
    </clipPath>
  </defs>
  <g id="Group_1907" data-name="Group 1907" clip-path="url(#clip-path)">
    <path id="Path_1549" data-name="Path 1549" d="M194.1,413.277a10.509,10.509,0,0,0,10.509,10.509h14.012a10.51,10.51,0,0,0,10.509-10.509V392.259H194.1Z" transform="translate(-109.109 -220.495)" fill="#ebebeb"/>
    <path id="Path_1550" data-name="Path 1550" d="M68.488,237.354a63.236,63.236,0,0,1-8.631-6.683,17.487,17.487,0,1,1-16.9-21.891c.536,0,1.05.111,1.562.157a63.014,63.014,0,0,1-5.031-24.679H35.031L32.61,195.772a3.5,3.5,0,0,1-5.415,2.165l-9.679-6.672L7.006,201.774l6.655,9.678a3.5,3.5,0,0,1-2.164,5.415L0,219.29V233.3l11.512,2.42a3.5,3.5,0,0,1,2.164,5.416l-6.669,9.679,10.509,10.509,9.679-6.657a3.5,3.5,0,0,1,5.419,2.165l2.417,11.5H49.043l2.417-11.515a3.5,3.5,0,0,1,5.419-2.165l9.68,6.674,11-11a20.4,20.4,0,0,0-9.067-12.976" transform="translate(0 -103.575)" fill="#c9dfff"/>
    <path id="Path_1551" data-name="Path 1551" d="M216.206,103.314a63.056,63.056,0,1,0-97.079,53.1,20.088,20.088,0,0,1,9.5,16.823v14.156A10.509,10.509,0,0,0,139.139,197.9h28.025a10.51,10.51,0,0,0,10.509-10.509V173.523a20.637,20.637,0,0,1,9.7-17.243,63,63,0,0,0,28.83-52.965" transform="translate(-50.64 -22.63)" fill="#ffb41f"/>
    <path id="Path_1552" data-name="Path 1552" d="M302.993,48.267l11.014-8.26L301.4,23.191l-11.014,8.26a7.007,7.007,0,0,1-11.137-6.6l1.945-13.624L260.381,8.258l-1.945,13.623A7.005,7.005,0,0,1,245.9,25.1l-8.259-11.014L220.825,26.694l8.256,11.014a7.007,7.007,0,0,1-6.6,11.137L208.862,46.9l-2.975,20.808,13.627,1.945a7.006,7.006,0,0,1,3.212,12.541l-11.011,8.26,12.612,16.814,11.011-8.257a7.007,7.007,0,0,1,11.14,6.6l-1.962,13.62,20.808,2.975,1.962-13.627a7.006,7.006,0,0,1,12.54-3.212l8.262,11.011L304.9,103.761l-8.263-11.011a7,7,0,0,1,6.6-11.138l13.624,1.946,2.974-20.808L306.208,60.8a7.006,7.006,0,0,1-3.216-12.538M262.861,89.749a24.522,24.522,0,1,1,24.522-24.522,24.52,24.52,0,0,1-24.522,24.522" transform="translate(-115.732 -4.642)" fill="#09d6cc"/>
    <rect id="Rectangle_759" data-name="Rectangle 759" width="35.031" height="7.006" transform="translate(84.996 182.273)" fill="#9e9e9e"/>
    <rect id="Rectangle_760" data-name="Rectangle 760" width="7.006" height="10.509" transform="translate(99.008 154.249)" fill="#fa0"/>
    <path id="Path_1554" data-name="Path 1554" d="M389.608,296.259h17.515a3.5,3.5,0,0,1,0,7.006H389.608a3.5,3.5,0,0,1,0-7.006" transform="translate(-217.036 -166.532)" fill="#fa0"/>
    <path id="Path_1555" data-name="Path 1555" d="M377.062,342.644a3.5,3.5,0,0,1,4.933-.45l15.637,13.029a3.5,3.5,0,0,1-4.485,5.383L377.51,347.577a3.5,3.5,0,0,1-.448-4.933" transform="translate(-211.496 -191.897)" fill="#fa0"/>
    <path id="Path_1556" data-name="Path 1556" d="M341.608,360.259a3.5,3.5,0,0,1,3.5,3.5v17.515a3.5,3.5,0,0,1-7.006,0V363.762a3.5,3.5,0,0,1,3.5-3.5" transform="translate(-190.054 -202.507)" fill="#fa0"/>
    <path id="Path_1557" data-name="Path 1557" d="M4.521,127.606l21.227-5.3a3.5,3.5,0,1,1,1.7,6.794L6.218,134.4a3.5,3.5,0,1,1-1.7-6.794" transform="translate(-1.049 -68.69)" fill="#fa0"/>
    <path id="Path_1558" data-name="Path 1558" d="M17.264,46.382a3.5,3.5,0,0,1,4.885-.812L40.968,59.012a3.5,3.5,0,1,1-4.069,5.7L18.08,51.267a3.5,3.5,0,0,1-.816-4.885" transform="translate(-9.338 -25.248)" fill="#fa0"/>
    <path id="Path_1559" data-name="Path 1559" d="M86.366.11a3.5,3.5,0,0,1,4.261,2.527l5.429,21.236a3.5,3.5,0,1,1-6.787,1.736L83.839,4.372A3.5,3.5,0,0,1,86.366.11" transform="translate(-47.066 0)" fill="#fa0"/>
  </g>
</svg>
