<svg xmlns="http://www.w3.org/2000/svg" xmlns:xlink="http://www.w3.org/1999/xlink" width="178.876" height="254.662" viewBox="0 0 178.876 254.662">
  <defs>
    <clipPath id="clip-path">
      <rect id="Rectangle_42" data-name="Rectangle 42" width="84.76" height="254.662" transform="translate(0 0)" fill="none"/>
    </clipPath>
    <clipPath id="clip-path-2">
      <rect id="Rectangle_54" data-name="Rectangle 54" width="73.786" height="31" fill="none"/>
    </clipPath>
    <clipPath id="clip-path-4">
      <rect id="Rectangle_51" data-name="Rectangle 51" width="33.604" height="2.214" fill="none"/>
    </clipPath>
    <clipPath id="clip-path-5">
      <rect id="Rectangle_52" data-name="Rectangle 52" width="32.18" height="17.337" fill="none"/>
    </clipPath>
  </defs>
  <g id="Group_1928" data-name="Group 1928" transform="translate(-1518 -3232.897)">
    <g id="Group_88" data-name="Group 88" transform="translate(1612.116 3232.902)">
      <g id="Group_87" data-name="Group 87" transform="translate(0 -0.005)" clip-path="url(#clip-path)">
        <path id="Path_261" data-name="Path 261" d="M11.363,262.311c-.041-.1-.089-.2-.147-.3-.193-.749-1.874-4.722-2.059-5.157-.528-1.237-1.393-.579-1.393.344,0,.286.122,2.325.051,2.62a13.89,13.89,0,0,0-5.988-3.185s-2.809-.923-1.458,1.907c.9,1.891,1.978,2.129,3.294,4.775s3.745,4.465,5.92,4.3l2.334.79,2.36-3.49-1.517-.937a3.574,3.574,0,0,1-1.395-1.661" transform="translate(-0.001 -200.341)" fill="#ffb27d"/>
        <path id="Path_262" data-name="Path 262" d="M100.684,234.121s11.623,44.523-23.714,37.122c-9.541-2-34.957-27.326-34.957-27.326s2.446-3.859,5.457-3.45c0,0,24.556,7.985,28.483,10.875,2.175,1.6,4.659-23.623,12.18-23.264s12.551,6.043,12.551,6.043" transform="translate(-32.857 -178.369)" fill="#91cecf"/>
        <path id="Path_263" data-name="Path 263" d="M291.988,1107.61s-.649,10.472-2.675,10.622c-.27.02-10.276.02-10.276.02l-12.773-.074s.083-3.078,3.817-3.728,9.983-3.275,12.245-8.209c2.379-5.191,9.662,1.37,9.662,1.37" transform="translate(-208.236 -863.59)" fill="#163560"/>
        <path id="Path_264" data-name="Path 264" d="M232.168,659.1a26.629,26.629,0,0,1-6.915,1.3,25.385,25.385,0,0,1-6.455-.921s-.731-7.069-4.754-22.646c-2.109-8.165-5.121-18.662-9.406-31.707-11.848-36.051-15.451-57.141-15.78-59.139-.018-.105-.025-.158-.025-.158l.039-.017L225.3,529.813s-4.5,49.687,1.242,68.758a80.435,80.435,0,0,1,2.085,9.137c3.628,20.716,3.544,51.387,3.544,51.387" transform="translate(-147.681 -414.349)" fill="#2b478b"/>
        <path id="Path_265" data-name="Path 265" d="M228.713,607.708l-14.58,29.118c-2.109-8.165-5.121-18.662-9.406-31.707-11.848-36.051-15.451-57.141-15.78-59.139,0-.06.007-.116.014-.175l36.425-15.993s-4.5,49.687,1.242,68.758a80.435,80.435,0,0,1,2.085,9.137" transform="translate(-147.769 -414.349)" fill="#233862"/>
        <path id="Path_266" data-name="Path 266" d="M161.441,1107.61s-.649,10.472-2.675,10.622c-.27.02-10.276.02-10.276.02l-12.773-.074s.084-3.078,3.817-3.728,9.983-3.275,12.245-8.209c2.379-5.191,9.662,1.37,9.662,1.37" transform="translate(-106.14 -863.59)" fill="#163560"/>
        <path id="Path_267" data-name="Path 267" d="M158.954,535.185a518.57,518.57,0,0,0,5.1,71.73c5.571,39.533,3.682,56.314,3.682,56.314a37.985,37.985,0,0,0,5.372,1.366,24.384,24.384,0,0,0,7.97-.922s7.973-39.548,5.687-59.335,10.919-67.9,10.919-67.9Z" transform="translate(-124.305 -418.55)" fill="#2b478b"/>
        <path id="Path_268" data-name="Path 268" d="M220.336,127.9l-6.388,5.609-10.44-.46c.025-.841.216-4.34.393-7.509.011-.187.022-.374.032-.557.154-2.7.288-5.014.288-5.014l8.91-5.533,3.322-2.063c0,.056.136,2.95.158,3.372a24.463,24.463,0,0,0,3.726,12.155" transform="translate(-159.157 -87.885)" fill="#ffb27d"/>
        <path id="Path_269" data-name="Path 269" d="M149.2,256.5c.146,16.994,1.279,56.751,2.113,57.56,8.852,8.544,47.786-2.343,49.85-11.756S193.315,181.6,178.2,177.158c-3.137-.921-19.91,4.5-19.91,4.5a106.387,106.387,0,0,0-4.355,15.65c-.639,3.249-2.727,26.428-3.945,41.916-.321,4.129-.585,7.71-.74,10.222-.063,1.038-.077,3.567-.049,7.048" transform="translate(-116.671 -138.466)" fill="#abddda"/>
        <path id="Path_270" data-name="Path 270" d="M217.324,122.956c-1.587,3.829-8.931,7.983-12.015,9.564.011-.187.023-.374.032-.557.154-2.7.288-5.014.288-5.014l8.91-5.533c2.1-.325,3.441-.036,2.785,1.54" transform="translate(-160.566 -94.862)" fill="#fca56b"/>
        <path id="Path_271" data-name="Path 271" d="M176.961,52.546s16.122,1.5,16.9-8.555,3.384-16.632-6.876-18.014-12.56,2.3-13.636,5.592-.562,20.328,3.612,20.978" transform="translate(-135.192 -20.081)" fill="#ffb27d"/>
        <path id="Path_272" data-name="Path 272" d="M168.621,10.445s3.307,10.8,5.481,9.841,4.164-1.756,4.537,1.633-1.969,7.893,5.172,6.987S197.188,7.76,194.532,4.744c-7.665-8.7-36.515-4.647-25.911,5.7" transform="translate(-130.063 0.005)" fill="#163560"/>
        <path id="Path_273" data-name="Path 273" d="M195.069,161.629c.2-.084,11.506-5.156,12.829-4.72s2.971,4.475,2.971,4.475l-19.91,4.5s1.567-3.186,4.11-4.257" transform="translate(-149.343 -122.692)" fill="#91cecf"/>
        <path id="Path_274" data-name="Path 274" d="M149.185,394.22c30.295-21.907,32.65-56.631,32.65-56.631-14.414,8.132-28.1,21.572-32.543,36.347-.321,4.129.1,10.724-.059,13.235-.063,1.038-.077,3.567-.049,7.048" transform="translate(-116.66 -264.016)" fill="#91cecf"/>
        <path id="Path_275" data-name="Path 275" d="M20.1,537.987a2.389,2.389,0,0,0-1.229-.372,17.375,17.375,0,0,1-3.124-1.463c-1.108-1.005-1.5.065-.723,1.132.167.231.767.625.976.846a23.071,23.071,0,0,0-6.747,4.443s-2.3,1.856.808,2.26c2.078.27,2.862-.5,5.8-.169s5.783-.717,6.826-2.632l1.932-1.529-1.646-3.878Z" transform="translate(-6.597 -418.993)" fill="#ffb27d"/>
        <path id="Path_276" data-name="Path 276" d="M108.218,201.867s31.907-1.532,3.053,52.151c-4.615,8.586-37.59,27.241-37.59,27.241s-3.1-3.357-1.928-6.161c0,0,21.473-24.437,24.35-25.431,2.553-.882,2.026-30.636,4.309-37.811a17.576,17.576,0,0,1,7.806-9.989" transform="translate(-55.909 -157.869)" fill="#abddda"/>
      </g>
    </g>
    <g id="Group_112" data-name="Group 112" transform="translate(1518 3456.371)">
      <g id="Group_111" data-name="Group 111" clip-path="url(#clip-path-2)">
        <g id="Group_110" data-name="Group 110">
          <g id="Group_109" data-name="Group 109" clip-path="url(#clip-path-2)">
            <path id="Path_343" data-name="Path 343" d="M155.637,76.17a7.043,7.043,0,0,1-7.019,7.019H115.473a7.018,7.018,0,0,1,0-14.036h33.145a7.039,7.039,0,0,1,7.019,7.017" transform="translate(-81.851 -52.189)" fill="#2b478b"/>
            <path id="Path_344" data-name="Path 344" d="M138.538,76.17a7.039,7.039,0,0,1-7.017,7.019H115.473a7.018,7.018,0,0,1,0-14.036h16.049a7.037,7.037,0,0,1,7.017,7.017" transform="translate(-81.851 -52.189)" fill="#699ff0"/>
            <g id="Group_105" data-name="Group 105" transform="translate(34.718 18.52)" opacity="0.4">
              <g id="Group_104" data-name="Group 104">
                <g id="Group_103" data-name="Group 103" clip-path="url(#clip-path-4)">
                  <path id="Path_345" data-name="Path 345" d="M174.139,77.71H142.524a1,1,0,0,1-.995-.995v-.224a1,1,0,0,1,.995-.994h31.615a1,1,0,0,1,.995.994v.224a1,1,0,0,1-.995.995" transform="translate(-141.529 -75.497)" fill="#e9f3fe"/>
                </g>
              </g>
            </g>
            <path id="Path_346" data-name="Path 346" d="M45.5,4.1a7.467,7.467,0,0,1-3.319,9.987L10.768,29.831A7.44,7.44,0,0,1,4.1,16.527L35.517.784A7.463,7.463,0,0,1,45.5,4.1" transform="translate(0 0)" fill="#ef7e29"/>
            <path id="Path_347" data-name="Path 347" d="M29.3,37.2a7.462,7.462,0,0,1-3.317,9.986L10.768,54.813A7.44,7.44,0,0,1,4.1,41.51l15.211-7.623A7.46,7.46,0,0,1,29.3,37.2" transform="translate(0 -24.983)" fill="#f99746"/>
            <g id="Group_108" data-name="Group 108" transform="translate(6.241 1.881)" opacity="0.5">
              <g id="Group_107" data-name="Group 107">
                <g id="Group_106" data-name="Group 106" clip-path="url(#clip-path-5)">
                  <path id="Path_348" data-name="Path 348" d="M57.04,9.878,27.074,24.9a1.058,1.058,0,0,1-1.415-.47l-.106-.212a1.057,1.057,0,0,1,.47-1.415L55.989,7.78a1.057,1.057,0,0,1,1.415.47l.107.213a1.058,1.058,0,0,1-.47,1.415" transform="translate(-25.442 -7.669)" fill="#ffe2cc"/>
                </g>
              </g>
            </g>
          </g>
        </g>
      </g>
    </g>
  </g>
</svg>
