<svg xmlns="http://www.w3.org/2000/svg" width="188.917" height="27.045" viewBox="0 0 188.917 27.045">
  <g id="Group_1930" data-name="Group 1930" transform="translate(-1461 -458.186)">
    <path id="star" d="M14.218,1.318l4.393,8.9,9.825,1.428-7.109,6.929,1.678,9.785-8.787-4.62-8.787,4.62,1.678-9.785L0,11.648,9.825,10.22Z" transform="translate(1461 456.868)" fill="#efce4a"/>
    <path id="star-2" data-name="star" d="M14.218,1.318l4.393,8.9,9.825,1.428-7.109,6.929,1.678,9.785-8.787-4.62-8.787,4.62,1.678-9.785L0,11.648,9.825,10.22Z" transform="translate(1501.12 456.868)" fill="#efce4a"/>
    <path id="star-3" data-name="star" d="M14.218,1.318l4.393,8.9,9.825,1.428-7.109,6.929,1.678,9.785-8.787-4.62-8.787,4.62,1.678-9.785L0,11.648,9.825,10.22Z" transform="translate(1581.36 456.868)" fill="#efce4a"/>
    <path id="star-4" data-name="star" d="M14.218,1.318l4.393,8.9,9.825,1.428-7.109,6.929,1.678,9.785-8.787-4.62-8.787,4.62,1.678-9.785L0,11.648,9.825,10.22Z" transform="translate(1541.24 456.868)" fill="#efce4a"/>
    <path id="star-5" data-name="star" d="M14.218,1.318l4.393,8.9,9.825,1.428-7.109,6.929,1.678,9.785-8.787-4.62-8.787,4.62,1.678-9.785L0,11.648,9.825,10.22Z" transform="translate(1621.48 456.868)" fill="#efce4a"/>
  </g>
</svg>
