<svg xmlns="http://www.w3.org/2000/svg" xmlns:xlink="http://www.w3.org/1999/xlink" width="255.752" height="219.313" viewBox="0 0 255.752 219.313">
  <defs>
    <clipPath id="clip-path">
      <rect id="Rectangle_43" data-name="Rectangle 43" width="162.776" height="219.312" fill="none"/>
    </clipPath>
    <clipPath id="clip-path-2">
      <rect id="Rectangle_50" data-name="Rectangle 50" width="64.752" height="109.802" fill="none"/>
    </clipPath>
    <clipPath id="clip-path-4">
      <rect id="Rectangle_45" data-name="Rectangle 45" width="36.785" height="52.194" fill="none"/>
    </clipPath>
    <clipPath id="clip-path-5">
      <rect id="Rectangle_48" data-name="Rectangle 48" width="25.782" height="71.44" fill="none"/>
    </clipPath>
  </defs>
  <g id="Group_1927" data-name="Group 1927" transform="translate(-178 -3268.462)">
    <g id="Group_90" data-name="Group 90" transform="translate(178 3268.462)">
      <g id="Group_89" data-name="Group 89" clip-path="url(#clip-path)">
        <path id="Path_277" data-name="Path 277" d="M385.141,178.723c-2.369-7.607-12.671-9.033-16.816-2.229a8.448,8.448,0,0,0-1.258,4.24c-.229,8.919,17.361,43.441,19.7,46.495,4.251,5.56,29.907,18.929,29.907,18.929l5.452-.794a40.4,40.4,0,0,1-6.274-5.123c-6.592-6.581-16.2-17.28-17.963-18.762-3.021-2.543-8.247-28.313-12.745-42.755" transform="translate(-270.86 -127.007)" fill="#bf8964"/>
        <path id="Path_278" data-name="Path 278" d="M416.6,30.4c.142-.573-12.445,5.689-13.084,6.4-5.9,6.549-4.22,15.094-.842,15.176,2.166.053,1.747,3.654,1.747,3.654l24.136-10.21S425.654,28.472,416.6,30.4" transform="translate(-294.876 -22.319)" fill="#b5453c"/>
        <path id="Path_279" data-name="Path 279" d="M380.991,9.4s.863-9.4-9.643-9.4a12.335,12.335,0,0,1,4.83,2.591s-6.7-3.934-13.992,2.111-2.761,21.2-4.978,24.082-10.852,3.454-9.8,12.76,27.4,20.963,25.713,28.662c0,0,10.326-15.179,2.942-22.106,0,0,3.6,3.39,3.965,7.42,0,0,.977-7.867-4.029-10.384-4.43-2.227-8.059-10.371-7.675-11.826S380.991,9.4,380.991,9.4" transform="translate(-256.292)" fill="#b5453c"/>
        <path id="Path_280" data-name="Path 280" d="M195.715,440.459l-5.223-.768s-17.561-13.956-20.177-40a46.535,46.535,0,0,1-.125-8.051,1.409,1.409,0,0,0-.182-.888s0,0-.006-.008c-.562-.862-1.961-3.02-3.855-6.091-1.867-3.024-5.062-8.742-8.577-15.159-6.332-11.555-13.7-25.375-16.234-29.776-8.057-14.029-4.173-23.462-4.173-23.462s22.477-2.222,28.637-7.61l2.218,3.42s4.87,21.56,4.64,21.66q.36,1.1.731,2.239c3.844,11.863,8.265,26.689,10.675,38.765,1.355,6.794,2.073,12.714,1.687,16.748a29.38,29.38,0,0,0,.4,6.134c2.176,15.474,9.567,42.844,9.567,42.844" transform="translate(-100.523 -227.754)" fill="#2b478b"/>
        <path id="Path_281" data-name="Path 281" d="M343.313,802.637h-21.79a11.965,11.965,0,0,1,.616-5.84c1.091-2.418,2.645-2.495.2-6.284,1.385,1.426,5.836,2.016,8.986,1.592.386.626,2.489,4.824,3.778,5.75,1.424,1.023,7.774.659,8.212,4.783" transform="translate(-237.166 -583.325)" fill="#233862"/>
        <path id="Path_282" data-name="Path 282" d="M173.389,335.967c-1.9,10.5-6.4,27.969-15.819,33.53-6.332-11.555-13.7-25.375-16.234-29.777-8.057-14.029-4.174-23.462-4.174-23.462s22.477-2.222,28.637-7.61l2.218,3.419s4.87,21.56,4.64,21.66q.36,1.1.731,2.239" transform="translate(-100.523 -227.754)" fill="#233862"/>
        <path id="Path_283" data-name="Path 283" d="M65.716,305.078,65.79,301c-8.12,1.024-28-9.7-28-9.7s-8.495,5.65-9.658,21.785c-.568,7.876-4.159,41.183-4.556,51.128-.145,3.6-.193,6.177-.209,7.205a.019.019,0,0,1,0,.01,1.414,1.414,0,0,1-.345.839,46.555,46.555,0,0,0-4.4,6.744c-12.39,23.053-5.911,54.377-5.911,54.377l2.877-.732s10.477-32.473,17.324-46.519a29.387,29.387,0,0,1,3.1-5.308c2.575-3.127,5.289-8.437,7.965-14.828,5.058-12.082,9.969-28.026,13.471-40.371.247.045,8.263-20.553,8.263-20.553" transform="translate(-8.133 -214.952)" fill="#2b478b"/>
        <path id="Path_284" data-name="Path 284" d="M380.174,152.015c-13.274-3.046-4.794-21.7-4.024-21.371,1.839-.375,5.878-3.6,9.492-9.911l.488.423,8.153,7.148s-1.885,2.78-3.47,5.5c-1.239,2.132-2.292,4.233-2.125,4.954.656.516-4.973,14.068-8.514,13.255" transform="translate(-275.073 -89.09)" fill="#cb946e"/>
        <path id="Path_285" data-name="Path 285" d="M402.3,187.223a66.869,66.869,0,0,1,3.579,8.6c1.245,3.99,4.361,16.678,4.361,16.678s-6.425,7.332-15.364,6.9c0,0-4.806-7.523-3.113-14.317S402.3,187.223,402.3,187.223" transform="translate(-288.819 -138.153)" fill="#91cecf"/>
        <path id="Path_286" data-name="Path 286" d="M431.455,129.5s-1.885,2.777-3.47,5.5c-5.069-3.125-5.075-9.4-4.684-12.651Z" transform="translate(-312.246 -90.288)" fill="#bf8964"/>
        <path id="Path_287" data-name="Path 287" d="M430.729,92.055s-12.308-6.849-7.925-14.448,5.746-13.6,13.789-9.549,7.885,7.824,7.039,10.716-9.589,14.867-12.9,13.281" transform="translate(-311.294 -49.258)" fill="#cb946e"/>
        <path id="Path_288" data-name="Path 288" d="M442.069,71.444c-.564-3.374-2.278-3.7-3.473-3.471a9.843,9.843,0,0,0-11.971-4.583,16.757,16.757,0,0,1-9.7,5.827s1.428,2.658,7.313,4.3a10.056,10.056,0,0,0,5.805-.464,32.852,32.852,0,0,1-8.352,3.148c7.755.71,15.133-6.38,15.9-7.138a11.036,11.036,0,0,1,.61,5.08c-.511,2.285-2.539,6.424-1.3,6.96,0,0,6.017-4.6,5.171-9.661" transform="translate(-307.652 -46.36)" fill="#b5453c"/>
        <path id="Path_289" data-name="Path 289" d="M21.91,802.194H.119a11.967,11.967,0,0,1,.616-5.84c1.091-2.418,2.8-3.517,2.39-6.442a7.847,7.847,0,0,0,6.791,2.6c.386.626,2.492,3.975,3.781,4.9,1.424,1.023,7.774.659,8.212,4.783" transform="translate(0 -582.882)" fill="#233862"/>
        <path id="Path_290" data-name="Path 290" d="M139.934,187.078a53.008,53.008,0,0,1-10.763,1.952c-5.73.626-11.646,1.052-14.745,2.29a19.637,19.637,0,0,0-4.133,2.256v0a1.224,1.224,0,0,0-.122.091,13.259,13.259,0,0,0-1.708,1.475,9.347,9.347,0,0,0-2,2.967c-1.136,2.808.369,10.591,1.333,14.846a3.866,3.866,0,0,1-1.979,4.289q-3.268,1.69-6.424,3.119l-.331.149c.02-.433.027-.863.027-1.282a39.611,39.611,0,0,0-.369-5.379c-.518,2.963-2.469,6.163-4.289,8.626-29.243,11.734-49.674,6.633-49.339.788,1.153-20.3,14.84-37.557,14.84-37.557,25.525-29.683,77.157-37.5,77.157-37.5s2.473-.3,5.456,3.288c4.293,5.165,4.506,6.511,4.506,6.511s1.133,26.185-7.117,29.063" transform="translate(-33.271 -109.364)" fill="#abddda"/>
        <path id="Path_291" data-name="Path 291" d="M324.034,217.048c-5.73.626-11.646,1.053-14.744,2.289a60.422,60.422,0,0,1,7.664-33.158s5.826,23.707,7.08,30.868" transform="translate(-228.136 -137.384)" fill="#91cecf"/>
        <path id="Path_292" data-name="Path 292" d="M345,172.209s-14.36,1.419-15.512,10.75,13.768,47.336,15.9,50.778c3.89,6.265,26.794,27.741,26.794,27.741l4.222-2.559s-16.246-27.5-18.762-30.077c-3.949-4.041-7.784-53.4-12.646-56.633" transform="translate(-243.087 -127.074)" fill="#cb946e"/>
        <path id="Path_293" data-name="Path 293" d="M348.107,186.312s1.475-24.059-16.939-18.241,2.858,47.2,2.858,47.2,10.808-.534,14.641-9.963Z" transform="translate(-238.834 -123.351)" fill="#abddda"/>
        <path id="Path_294" data-name="Path 294" d="M258.687,345.1a3.866,3.866,0,0,1-1.979,4.289q-3.268,1.69-6.424,3.119c-.112-.359-.213-.734-.3-1.133a19.74,19.74,0,0,1-.369-5.378c.487-8.984,6.606-15.787,9.742-18.709a9.344,9.344,0,0,0-2,2.966c-1.136,2.808.369,10.591,1.333,14.847" transform="translate(-184.162 -241.511)" fill="#91cecf"/>
        <path id="Path_295" data-name="Path 295" d="M396.113,140.483s2.248-2.842,3.768-2.75c0,0,6.144,8.6,6.194,12.55,0,0-7.664-10.2-9.962-9.8" transform="translate(-292.295 -101.632)" fill="#91cecf"/>
        <path id="Path_296" data-name="Path 296" d="M571.215,454.5s-3.267.058-3.973-.043a20.914,20.914,0,0,0-2.548-.434,10.88,10.88,0,0,0-2.615.439,1.918,1.918,0,0,1-.389.038h-5.419a3.242,3.242,0,0,1-1.139-1.216c-.256-.414-.291-1.4-.877-1.726-3.281-1.831,5.452-.794,5.452-.794s5.483-.1,5.989.278c.9.678,5.722,3.2,5.518,3.459" transform="translate(-408.445 -332.402)" fill="#bf8964"/>
        <path id="Path_297" data-name="Path 297" d="M494.975,502.607a13.334,13.334,0,0,0,4.186,2.559c1.808.446,3.863,5.624,4.192,6.364s-1.726-.329-2.548-1.589-1.383-1.753-1.623-1.48.144,3.726,1.514,5.644,2.192,3.616,1.205,3.507-6.849-1.534-8.055-5.1-.321-3.687-3.092-7.35,4.221-2.559,4.221-2.559" transform="translate(-361.651 -370.762)" fill="#cb946e"/>
      </g>
    </g>
    <g id="Group_102" data-name="Group 102" transform="translate(369 3377.644)">
      <g id="Group_101" data-name="Group 101" clip-path="url(#clip-path-2)">
        <g id="Group_100" data-name="Group 100">
          <g id="Group_99" data-name="Group 99" clip-path="url(#clip-path-2)">
            <path id="Path_311" data-name="Path 311" d="M94.161,5.975V59.522A5.992,5.992,0,0,1,88.186,65.5H56.359a5.906,5.906,0,0,1-2.4-.506,6,6,0,0,1-3.577-5.469V5.975A5.992,5.992,0,0,1,56.359,0H88.186a5.991,5.991,0,0,1,5.975,5.975" transform="translate(-43.009)" fill="#fcecdb"/>
            <path id="Path_312" data-name="Path 312" d="M228.526,64.114a6.5,6.5,0,1,1,8.375-3.8,6.5,6.5,0,0,1-8.375,3.8" transform="translate(-191.472 -43.978)" fill="#f7e0cb"/>
            <path id="Path_313" data-name="Path 313" d="M239.333,60.312l-12.178-4.572a6.5,6.5,0,1,1,12.178,4.572" transform="translate(-193.904 -43.978)" fill="#efcbab"/>
            <path id="Path_314" data-name="Path 314" d="M89.038,63.072a6.5,6.5,0,1,1,9.151-.925,6.5,6.5,0,0,1-9.151.925" transform="translate(-73.964 -43.986)" fill="#f7e0cb"/>
            <path id="Path_315" data-name="Path 315" d="M106.738,62.147,96.662,53.921a6.5,6.5,0,1,1,10.076,8.226" transform="translate(-82.512 -43.986)" fill="#efcbab"/>
            <path id="Path_316" data-name="Path 316" d="M228.526,335.153a6.5,6.5,0,1,1,8.375-3.8,6.5,6.5,0,0,1-8.375,3.8" transform="translate(-191.472 -275.342)" fill="#f7e0cb"/>
            <path id="Path_317" data-name="Path 317" d="M239.333,334.369,227.155,329.8a6.5,6.5,0,1,1,12.178,4.573" transform="translate(-193.904 -277.918)" fill="#efcbab"/>
            <path id="Path_318" data-name="Path 318" d="M89.038,334.111a6.5,6.5,0,1,1,9.151-.925,6.5,6.5,0,0,1-9.151.925" transform="translate(-73.964 -275.35)" fill="#f7e0cb"/>
            <path id="Path_319" data-name="Path 319" d="M106.738,336.2l-10.076-8.226a6.5,6.5,0,1,1,10.076,8.226" transform="translate(-82.512 -277.927)" fill="#efcbab"/>
            <path id="Path_320" data-name="Path 320" d="M233.6,204.469a6.5,6.5,0,1,1,3.092-8.663,6.5,6.5,0,0,1-3.092,8.663" transform="translate(-191.473 -163.969)" fill="#f7e0cb"/>
            <path id="Path_321" data-name="Path 321" d="M236.692,195.808l-11.754,5.571a6.5,6.5,0,1,1,11.754-5.571" transform="translate(-191.474 -163.97)" fill="#efcbab"/>
            <path id="Path_322" data-name="Path 322" d="M87.105,196.174a6.5,6.5,0,1,1,3.621,8.455,6.5,6.5,0,0,1-3.621-8.455" transform="translate(-73.956 -163.967)" fill="#f7e0cb"/>
            <path id="Path_323" data-name="Path 323" d="M114.571,207.355l4.834-12.076a6.5,6.5,0,1,1-4.834,12.076" transform="translate(-97.8 -166.693)" fill="#efcbab"/>
            <g id="Group_95" data-name="Group 95" transform="translate(14.367 13.303)" opacity="0.5">
              <g id="Group_94" data-name="Group 94">
                <g id="Group_93" data-name="Group 93" clip-path="url(#clip-path-4)">
                  <path id="Path_324" data-name="Path 324" d="M134.935,90.88v46.6a5.55,5.55,0,0,1-5.467,5.6H100.344a5.3,5.3,0,0,1-2.194-.474V97.33a6.5,6.5,0,0,1,2-4.706,6.323,6.323,0,0,1,1.539-1.089,6.122,6.122,0,0,1,2.758-.656Z" transform="translate(-98.15 -90.88)" fill="#efcbab"/>
                </g>
              </g>
            </g>
            <path id="Path_325" data-name="Path 325" d="M105.252,152.457V98.91a5.993,5.993,0,0,1,5.975-5.975h31.827a5.993,5.993,0,0,1,5.975,5.975v53.547a5.993,5.993,0,0,1-5.975,5.975H111.227a5.993,5.993,0,0,1-5.975-5.975" transform="translate(-89.845 -79.331)" fill="#fcecdb"/>
            <path id="Path_326" data-name="Path 326" d="M283.394,157.053a6.5,6.5,0,1,1,8.375-3.8,6.5,6.5,0,0,1-8.375,3.8" transform="translate(-238.309 -123.312)" fill="#f7e0cb"/>
            <path id="Path_327" data-name="Path 327" d="M294.2,153.25l-12.178-4.572A6.5,6.5,0,1,1,294.2,153.25" transform="translate(-240.74 -123.312)" fill="#efcbab"/>
            <path id="Path_328" data-name="Path 328" d="M143.906,156.011a6.5,6.5,0,1,1,9.151-.925,6.5,6.5,0,0,1-9.151.925" transform="translate(-120.8 -123.321)" fill="#f7e0cb"/>
            <path id="Path_329" data-name="Path 329" d="M161.607,155.086l-10.076-8.226a6.5,6.5,0,1,1,10.076,8.226" transform="translate(-129.35 -123.321)" fill="#efcbab"/>
            <path id="Path_330" data-name="Path 330" d="M283.394,428.092a6.5,6.5,0,1,1,8.375-3.8,6.5,6.5,0,0,1-8.375,3.8" transform="translate(-238.309 -354.676)" fill="#f7e0cb"/>
            <path id="Path_331" data-name="Path 331" d="M294.2,427.308l-12.178-4.573a6.5,6.5,0,1,1,12.178,4.573" transform="translate(-240.74 -357.253)" fill="#efcbab"/>
            <path id="Path_332" data-name="Path 332" d="M143.906,427.049a6.5,6.5,0,1,1,9.151-.925,6.5,6.5,0,0,1-9.151.925" transform="translate(-120.8 -354.684)" fill="#f7e0cb"/>
            <path id="Path_333" data-name="Path 333" d="M161.607,429.143l-10.076-8.226a6.5,6.5,0,0,1,10.076,8.226" transform="translate(-129.35 -357.261)" fill="#efcbab"/>
            <path id="Path_334" data-name="Path 334" d="M288.467,297.409a6.5,6.5,0,1,1,3.092-8.663,6.5,6.5,0,0,1-3.092,8.663" transform="translate(-238.31 -243.304)" fill="#f7e0cb"/>
            <path id="Path_335" data-name="Path 335" d="M291.56,288.746l-11.754,5.571a6.5,6.5,0,1,1,11.754-5.571" transform="translate(-238.31 -243.304)" fill="#efcbab"/>
            <path id="Path_336" data-name="Path 336" d="M141.974,289.113a6.5,6.5,0,1,1,3.621,8.455,6.5,6.5,0,0,1-3.621-8.455" transform="translate(-120.793 -243.302)" fill="#f7e0cb"/>
            <path id="Path_337" data-name="Path 337" d="M169.439,300.293l4.834-12.076a6.5,6.5,0,1,1-4.834,12.076" transform="translate(-144.636 -246.027)" fill="#efcbab"/>
            <rect id="Rectangle_46" data-name="Rectangle 46" width="49.988" height="74.601" transform="translate(4.27 34.963)" fill="#ef7e29"/>
            <rect id="Rectangle_47" data-name="Rectangle 47" width="49.988" height="74.602" transform="translate(11.233 34.963)" fill="#f99746"/>
            <path id="Path_338" data-name="Path 338" d="M36.133,243.178l-2.4,3.726H29.17V238.85h6.963Z" transform="translate(-24.9 -203.886)" fill="#d8661a"/>
            <path id="Path_339" data-name="Path 339" d="M6.963,244.727H0l4.27-5.877h6.963Z" transform="translate(0 -203.886)" fill="#f99746"/>
            <g id="Group_98" data-name="Group 98" transform="translate(11.233 38.363)" opacity="0.5">
              <g id="Group_97" data-name="Group 97">
                <g id="Group_96" data-name="Group 96" clip-path="url(#clip-path-5)">
                  <path id="Path_340" data-name="Path 340" d="M102.52,333.512H76.738v-71.44l25.782,2.478Z" transform="translate(-76.738 -262.072)" fill="#efcbab"/>
                </g>
              </g>
            </g>
            <path id="Path_341" data-name="Path 341" d="M126.726,244.724,122.67,246.9H79.147l-2.41-3.726v-4.329Z" transform="translate(-65.505 -203.884)" fill="#ef7e29"/>
            <path id="Path_342" data-name="Path 342" d="M130.254,244.727H80.265l-3.531-5.877h49.988Z" transform="translate(-65.502 -203.886)" fill="#f99746"/>
          </g>
        </g>
      </g>
    </g>
  </g>
</svg>
